<svg width="157" height="184" viewBox="0 0 157 184" fill="none" xmlns="http://www.w3.org/2000/svg">
<g clip-path="url(#clip0_244_1749)">
<path d="M77.4257 29.0526L96.1199 0H58.7263L77.4257 29.0526Z" fill="#F6A122"/>
<path d="M96.1353 89.4723L76.895 59.572H115.381L96.1404 89.4723H96.1353ZM77.9566 60.1506L96.1353 88.4064L114.319 60.1506H77.9566Z" fill="black"/>
<path d="M115.381 60.1508H76.895L96.12 30.281L96.4007 30.6515L115.381 60.1508ZM77.9566 59.5722H114.319L96.1404 31.3164L77.9566 59.5722Z" fill="black"/>
<path d="M58.711 89.4723L39.4707 59.572H77.9564L58.7161 89.4723H58.711ZM40.5322 60.1506L58.7161 88.4064L76.8949 60.1506H40.5322Z" fill="black"/>
<path d="M77.9564 60.1507H39.4707L58.711 30.2505L77.9513 60.1507H77.9564ZM40.5322 59.5721H76.8949L58.7161 31.3214L40.5322 59.5721Z" fill="black"/>
<path d="M114.85 60.3944L95.625 30.5144H134.08L114.85 60.3944ZM96.6814 31.093L114.845 59.3234L133.013 31.093H96.6814Z" fill="black"/>
<path d="M133.544 31.0929H96.0025L95.7932 30.8188L95.8851 30.631L114.85 1.17236L133.906 30.7833L133.723 31.0726L133.549 31.0929H133.544ZM96.6506 30.5194H133.039L114.85 2.24331L96.6557 30.5194H96.6506Z" fill="black"/>
<path d="M96.15 30.8032L96.1353 30.7834L96.15 30.8032Z" fill="url(#paint0_radial_244_1749)"/>
<path d="M96.15 30.8032L96.1353 30.7834L96.15 30.8032Z" fill="url(#paint1_radial_244_1749)"/>
<mask id="path-10-inside-1_244_1749" fill="white">
<path d="M96.2782 89.2542H58.5631L58.3743 88.9344L58.4712 88.7822L77.4258 59.3235L96.4824 88.9395L96.2782 89.2491V89.2542ZM59.2266 88.6756H95.6199L77.4207 60.3944L59.2215 88.6756H59.2266Z"/>
</mask>
<path d="M96.2782 89.2542H58.5631L58.3743 88.9344L58.4712 88.7822L77.4258 59.3235L96.4824 88.9395L96.2782 89.2491V89.2542ZM59.2266 88.6756H95.6199L77.4207 60.3944L59.2215 88.6756H59.2266Z" fill="black"/>
<path d="M96.2782 89.2542V93.2542H100.278V89.2542H96.2782ZM58.5631 89.2542L55.1188 91.2882L56.2798 93.2542H58.5631V89.2542ZM58.3743 88.9344L55.0003 86.7858L53.6823 88.8555L54.93 90.9684L58.3743 88.9344ZM58.4712 88.7822L55.1074 86.6178L55.1023 86.6257L55.0973 86.6336L58.4712 88.7822ZM77.4258 59.3235L80.7896 57.159L77.4257 51.9312L74.0619 57.1591L77.4258 59.3235ZM96.4824 88.9395L99.8218 91.1414L101.256 88.9662L99.8461 86.7751L96.4824 88.9395ZM96.2782 89.2491L92.9388 87.0472L92.2782 88.0491V89.2491H96.2782ZM95.6199 88.6756V92.6756H102.951L98.9836 86.511L95.6199 88.6756ZM77.4207 60.3944L80.7844 58.2299L77.4207 53.0027L74.0569 58.2299L77.4207 60.3944ZM59.2215 88.6756L55.8577 86.511L51.8908 92.6756H59.2215V88.6756ZM96.2782 89.2542V85.2542H58.5631V89.2542V93.2542H96.2782V89.2542ZM58.5631 89.2542L62.0074 87.2202L61.8185 86.9005L58.3743 88.9344L54.93 90.9684L55.1188 91.2882L58.5631 89.2542ZM58.3743 88.9344L61.7482 91.083L61.8452 90.9308L58.4712 88.7822L55.0973 86.6336L55.0003 86.7858L58.3743 88.9344ZM58.4712 88.7822L61.8351 90.9466L80.7896 61.4879L77.4258 59.3235L74.0619 57.1591L55.1074 86.6178L58.4712 88.7822ZM77.4258 59.3235L74.062 61.4879L93.1186 91.104L96.4824 88.9395L99.8461 86.7751L80.7896 57.159L77.4258 59.3235ZM96.4824 88.9395L93.1429 86.7376L92.9388 87.0472L96.2782 89.2491L99.6176 91.451L99.8218 91.1414L96.4824 88.9395ZM96.2782 89.2491H92.2782V89.2542H96.2782H100.278V89.2491H96.2782ZM59.2266 88.6756V92.6756H95.6199V88.6756V84.6756H59.2266V88.6756ZM95.6199 88.6756L98.9836 86.511L80.7844 58.2299L77.4207 60.3944L74.0569 62.559L92.2561 90.8402L95.6199 88.6756ZM77.4207 60.3944L74.0569 58.2299L55.8577 86.511L59.2215 88.6756L62.5852 90.8402L80.7844 62.559L77.4207 60.3944ZM59.2215 88.6756V92.6756H59.2266V88.6756V84.6756H59.2215V88.6756Z" fill="black" mask="url(#path-10-inside-1_244_1749)"/>
<mask id="path-12-inside-2_244_1749" fill="white">
<path d="M77.4257 118.601L58.3691 88.9851L58.558 88.7009L58.7315 88.6755H96.2884L96.4823 88.9902L96.3854 89.1425L77.4308 118.601H77.4257ZM59.2265 89.2542L77.4206 117.53L95.6198 89.2542H59.2265Z"/>
</mask>
<path d="M77.4257 118.601L58.3691 88.9851L58.558 88.7009L58.7315 88.6755H96.2884L96.4823 88.9902L96.3854 89.1425L77.4308 118.601H77.4257ZM59.2265 89.2542L77.4206 117.53L95.6198 89.2542H59.2265Z" fill="black"/>
<path d="M77.4257 118.601L76.5848 119.142L76.8801 119.601H77.4257V118.601ZM58.3691 88.9851L57.5362 88.4318L57.1744 88.9764L57.5282 89.5263L58.3691 88.9851ZM58.558 88.7009L58.4133 87.7114L57.9719 87.776L57.725 88.1476L58.558 88.7009ZM58.7315 88.6755V87.6755H58.6588L58.5868 87.6861L58.7315 88.6755ZM96.2884 88.6755L97.1397 88.1509L96.8468 87.6755H96.2884V88.6755ZM96.4823 88.9902L97.3258 89.5274L97.6623 88.9989L97.3336 88.4656L96.4823 88.9902ZM96.3854 89.1425L97.2263 89.6836L97.2288 89.6796L96.3854 89.1425ZM77.4308 118.601V119.601H77.9765L78.2718 119.142L77.4308 118.601ZM59.2265 89.2542V88.2542H57.394L58.3856 89.7953L59.2265 89.2542ZM77.4206 117.53L76.5797 118.071L77.4205 119.378L78.2615 118.071L77.4206 117.53ZM95.6198 89.2542L96.4607 89.7954L97.4527 88.2542H95.6198V89.2542ZM77.4257 118.601L78.2667 118.06L59.2101 88.444L58.3691 88.9851L57.5282 89.5263L76.5848 119.142L77.4257 118.601ZM58.3691 88.9851L59.2021 89.5385L59.3909 89.2543L58.558 88.7009L57.725 88.1476L57.5362 88.4318L58.3691 88.9851ZM58.558 88.7009L58.7026 89.6904L58.8762 89.665L58.7315 88.6755L58.5868 87.6861L58.4133 87.7114L58.558 88.7009ZM58.7315 88.6755V89.6755H96.2884V88.6755V87.6755H58.7315V88.6755ZM96.2884 88.6755L95.4371 89.2002L95.631 89.5149L96.4823 88.9902L97.3336 88.4656L97.1397 88.1509L96.2884 88.6755ZM96.4823 88.9902L95.6388 88.4531L95.5419 88.6053L96.3854 89.1425L97.2288 89.6796L97.3258 89.5274L96.4823 88.9902ZM96.3854 89.1425L95.5444 88.6014L76.5899 118.06L77.4308 118.601L78.2718 119.142L97.2263 89.6836L96.3854 89.1425ZM77.4308 118.601V117.601H77.4257V118.601V119.601H77.4308V118.601ZM59.2265 89.2542L58.3856 89.7953L76.5797 118.071L77.4206 117.53L78.2616 116.989L60.0675 88.713L59.2265 89.2542ZM77.4206 117.53L78.2615 118.071L96.4607 89.7954L95.6198 89.2542L94.7789 88.7129L76.5797 116.989L77.4206 117.53ZM95.6198 89.2542V88.2542H59.2265V89.2542V90.2542H95.6198V89.2542Z" fill="black" mask="url(#path-12-inside-2_244_1749)"/>
<path d="M58.701 31.0929H21.1645L20.9348 30.7985L40.0016 1.17236L59.0633 30.7935L58.8694 31.0777L58.701 31.098V31.0929ZM21.8075 30.5194H58.2008L40.0016 2.24331L21.8075 30.5194Z" fill="black"/>
<path d="M40.0014 60.3944L20.7764 30.5144H59.2315L40.0014 60.3944ZM21.8379 31.093L40.0014 59.3234L58.17 31.093H21.8379Z" fill="black"/>
<path d="M40.0017 3.41113C40.8895 3.4111 41.6199 2.73977 41.7078 1.87988L41.7166 1.70508C41.7164 0.822066 41.0413 0.0958994 40.1765 0.00878906L40.0017 0M40.0017 3.41113V0M40.0017 3.41113L39.8259 3.40234C39.0191 3.32068 38.3777 2.68234 38.2957 1.87988L38.2869 1.70508C38.287 0.76336 39.0548 0 40.0017 0M40.0017 3.41113V0" fill="black" stroke="black" stroke-width="7"/>
<path d="M21.3074 32.5095C22.1952 32.5095 22.9256 31.8382 23.0134 30.9783L23.0222 30.8035C23.0221 29.9205 22.347 29.1943 21.4822 29.1072L21.3074 29.0984M21.3074 32.5095V29.0984M21.3074 32.5095L21.1316 32.5007C20.3248 32.4191 19.6833 31.7807 19.6013 30.9783L19.5925 30.8035C19.5927 29.8617 20.3604 29.0984 21.3074 29.0984M21.3074 32.5095V29.0984" fill="black" stroke="black" stroke-width="7"/>
<path d="M58.7009 32.5095C59.5887 32.5095 60.3191 31.8382 60.407 30.9783L60.4158 30.8035C60.4156 29.9205 59.7405 29.1943 58.8757 29.1072L58.7009 29.0984M58.7009 32.5095V29.0984M58.7009 32.5095L58.5251 32.5007C57.7183 32.4191 57.0769 31.7807 56.9949 30.9783L56.9861 30.8035C56.9863 29.8617 57.754 29.0984 58.7009 29.0984M58.7009 32.5095V29.0984" fill="black" stroke="black" stroke-width="7"/>
<path d="M40.0017 61.5671C40.8895 61.5671 41.6199 60.8958 41.7078 60.0359L41.7166 59.8611C41.7164 58.9781 41.0413 58.2519 40.1765 58.1648L40.0017 58.156M40.0017 61.5671V58.156M40.0017 61.5671L39.8259 61.5583C39.0191 61.4767 38.3777 60.8383 38.2957 60.0359L38.2869 59.8611C38.287 58.9194 39.0548 58.156 40.0017 58.156M40.0017 61.5671V58.156" fill="black" stroke="black" stroke-width="7"/>
<path d="M77.4258 61.5671C78.3136 61.5671 79.044 60.8958 79.1318 60.0359L79.1406 59.8611C79.1405 58.9781 78.4654 58.2519 77.6006 58.1648L77.4258 58.156M77.4258 61.5671V58.156M77.4258 61.5671L77.25 61.5583C76.4432 61.4767 75.8017 60.8383 75.7197 60.0359L75.7109 59.8611C75.7111 58.9194 76.4788 58.156 77.4258 58.156M77.4258 61.5671V58.156" fill="black" stroke="black" stroke-width="7"/>
<path d="M96.1201 32.4688C97.0079 32.4687 97.7383 31.7974 97.8262 30.9375L97.835 30.7627C97.8348 29.8797 97.1597 29.1535 96.2949 29.0664L96.1201 29.0576M96.1201 32.4688V29.0576M96.1201 32.4688L95.9443 32.46C95.1375 32.3783 94.4961 31.74 94.4141 30.9375L94.4053 30.7627C94.4054 29.821 95.1732 29.0576 96.1201 29.0576M96.1201 32.4688V29.0576" fill="black" stroke="black" stroke-width="7"/>
<path d="M133.544 32.4688C134.432 32.4687 135.162 31.7974 135.25 30.9375L135.259 30.7627C135.259 29.8797 134.584 29.1535 133.719 29.0664L133.544 29.0576M133.544 32.4688V29.0576M133.544 32.4688L133.368 32.46C132.562 32.3783 131.92 31.74 131.838 30.9375L131.829 30.7627C131.83 29.821 132.597 29.0576 133.544 29.0576M133.544 32.4688V29.0576" fill="black" stroke="black" stroke-width="7"/>
<path d="M114.85 3.41113C115.738 3.4111 116.468 2.73977 116.556 1.87988L116.565 1.70508C116.565 0.822066 115.89 0.0958994 115.025 0.00878906L114.85 0M114.85 3.41113V0M114.85 3.41113L114.674 3.40234C113.867 3.32068 113.226 2.68234 113.144 1.87988L113.135 1.70508C113.135 0.76336 113.903 0 114.85 0M114.85 3.41113V0" fill="black" stroke="black" stroke-width="7"/>
<path d="M58.7266 90.6707C59.6144 90.6706 60.3448 89.9993 60.4326 89.1394L60.4414 88.9646C60.4412 88.0816 59.7662 87.3554 58.9014 87.2683L58.7266 87.2595M58.7266 90.6707V87.2595M58.7266 90.6707L58.5508 90.6619C57.7439 90.5802 57.1025 89.9419 57.0205 89.1394L57.0117 88.9646C57.0119 88.0229 57.7796 87.2595 58.7266 87.2595M58.7266 90.6707V87.2595" fill="black" stroke="black" stroke-width="7"/>
<path d="M96.1201 90.6707C97.0079 90.6706 97.7383 89.9993 97.8262 89.1394L97.835 88.9646C97.8348 88.0816 97.1597 87.3554 96.2949 87.2683L96.1201 87.2595M96.1201 90.6707V87.2595M96.1201 90.6707L95.9443 90.6619C95.1375 90.5802 94.4961 89.9419 94.4141 89.1394L94.4053 88.9646C94.4054 88.0229 95.1732 87.2595 96.1201 87.2595M96.1201 90.6707V87.2595" fill="black" stroke="black" stroke-width="7"/>
<path d="M114.835 61.5925C115.723 61.5925 116.453 60.9212 116.541 60.0613L116.55 59.8865C116.549 59.0035 115.874 58.2773 115.01 58.1902L114.835 58.1814M114.835 61.5925V58.1814M114.835 61.5925L114.659 61.5837C113.852 61.5021 113.211 60.8637 113.129 60.0613L113.12 59.8865C113.12 58.9448 113.888 58.1814 114.835 58.1814M114.835 61.5925V58.1814" fill="black" stroke="black" stroke-width="7"/>
<path d="M77.4258 119.774C78.3136 119.774 79.044 119.103 79.1318 118.243L79.1406 118.068C79.1405 117.185 78.4654 116.459 77.6006 116.372L77.4258 116.363M77.4258 119.774V116.363M77.4258 119.774L77.25 119.765C76.4432 119.683 75.8017 119.045 75.7197 118.243L75.7109 118.068C75.7111 117.126 76.4788 116.363 77.4258 116.363M77.4258 119.774V116.363" fill="black" stroke="black" stroke-width="7"/>
<path d="M16.3619 164.302H11.9882C11.5034 164.302 11.1767 164.073 11.0083 163.621L0.0867601 135.472C0.0306212 135.361 0 135.234 0 135.092C0 134.909 0.0663459 134.762 0.204141 134.655C0.336833 134.549 0.52056 134.498 0.750219 134.498H6.37942C6.84894 134.498 7.17046 134.731 7.33888 135.198L14.1419 154.612L14.2082 154.592L20.9908 135.203C21.149 134.736 21.4655 134.503 21.9503 134.503H27.5846C27.8245 134.503 28.0133 134.554 28.1409 134.66C28.2685 134.767 28.3348 134.909 28.3348 135.097C28.3348 135.224 28.3042 135.351 28.2481 135.477L17.3469 163.632C17.1785 164.083 16.8468 164.312 16.367 164.312L16.3619 164.302Z" fill="#3D3D3D"/>
<path d="M34.7909 163.144C32.7699 161.952 31.1878 160.333 30.0446 158.297C28.9014 156.262 28.3298 154.039 28.3298 151.638C28.3298 149.237 28.8708 146.989 29.9528 144.943C31.0347 142.898 32.5351 141.279 34.4643 140.076C36.3934 138.873 38.5573 138.274 40.9611 138.274C43.5639 138.274 45.8299 138.848 47.7539 139.995C49.683 141.142 51.1528 142.72 52.1684 144.735C53.184 146.75 53.6944 149.039 53.6944 151.597C53.6944 152.049 53.674 152.547 53.628 153.085C53.5719 153.582 53.2708 153.826 52.7298 153.826H35.0257C35.3268 154.917 35.8065 155.861 36.4751 156.658C37.1436 157.455 37.9449 158.069 38.8737 158.495C39.8026 158.922 40.8029 159.13 41.8695 159.13C42.8647 159.13 43.7731 158.982 44.5897 158.693C45.4063 158.404 46.1922 157.983 46.9475 157.429C47.1313 157.287 47.315 157.216 47.5038 157.216C47.7437 157.216 47.9529 157.343 48.1213 157.597L50.4026 160.82C50.5455 161.033 50.617 161.216 50.617 161.373C50.617 161.612 50.5047 161.82 50.275 161.987C49.0808 162.921 47.7539 163.647 46.2943 164.16C44.8347 164.677 43.2679 164.936 41.5888 164.936C39.0728 164.936 36.8017 164.337 34.7858 163.144H34.7909ZM45.0643 145.217C44.0028 144.334 42.7065 143.893 41.1703 143.893C39.6342 143.893 38.3736 144.339 37.2559 145.238C36.1382 146.136 35.3829 147.37 34.9848 148.938H47.2078C46.8403 147.339 46.1259 146.101 45.0643 145.212V145.217ZM45.641 130.113C45.7737 130.204 45.8452 130.326 45.8452 130.483C45.8452 130.651 45.7686 130.838 45.6104 131.036L42.2625 135.34C41.9767 135.68 41.6245 135.848 41.1958 135.848H38.297C38.0572 135.848 37.8683 135.797 37.7305 135.691C37.5927 135.584 37.5264 135.442 37.5264 135.254C37.5264 135.142 37.5621 135 37.6336 134.828L39.7005 130.625C39.8842 130.189 40.2262 129.965 40.7263 129.965H45.1C45.3297 129.965 45.5083 130.011 45.6461 130.102L45.641 130.113Z" fill="#3D3D3D"/>
<path d="M76.3897 139.736C76.6908 139.918 76.8388 140.152 76.8388 140.436C76.8388 140.578 76.798 140.736 76.7112 140.903L74.5779 144.893C74.4095 145.202 74.185 145.359 73.9145 145.359C73.7461 145.359 73.5776 145.309 73.4245 145.212C72.3426 144.634 71.3219 144.344 70.3522 144.344C69.3825 144.344 68.52 144.618 67.6626 145.162C66.8104 145.705 66.1214 146.507 65.5957 147.557C65.0701 148.613 64.8047 149.867 64.8047 151.323V163.459C64.8047 164.027 64.5189 164.307 63.9524 164.307H59.1091C58.5426 164.307 58.2568 164.022 58.2568 163.459V139.548C58.2568 138.985 58.5426 138.7 59.1091 138.7H62.8398C63.3246 138.7 63.6411 138.929 63.7993 139.38L64.6311 141.802C65.4426 140.67 66.3868 139.802 67.4687 139.193C68.5507 138.584 69.8163 138.279 71.2657 138.279C72.9601 138.279 74.6647 138.766 76.3846 139.741L76.3897 139.736Z" fill="#3D3D3D"/>
<path d="M87.1633 164.302H82.32C81.7484 164.302 81.4677 164.017 81.4677 163.454V144.72H79.1201C78.5536 144.72 78.2678 144.436 78.2678 143.872V139.543C78.2678 138.979 78.5536 138.695 79.1201 138.695H81.4218V134.112C81.4218 133.589 81.677 133.28 82.1873 133.178L87.0918 132.244C87.148 132.229 87.2194 132.224 87.3062 132.224C87.5358 132.224 87.7094 132.295 87.842 132.437C87.9696 132.579 88.036 132.772 88.036 133.011V138.695H92.2821C92.8486 138.695 93.1344 138.979 93.1344 139.543V143.872C93.1344 144.436 92.8486 144.72 92.2821 144.72H88.0156V163.454C88.0156 164.022 87.7298 164.302 87.1633 164.302Z" fill="#3D3D3D"/>
<path d="M102.076 129.509H97.1458C96.675 129.509 96.2935 129.888 96.2935 130.356V134.772C96.2935 135.24 96.675 135.62 97.1458 135.62H102.076C102.546 135.62 102.928 135.24 102.928 134.772V130.356C102.928 129.888 102.546 129.509 102.076 129.509Z" fill="#3D3D3D"/>
<path d="M102.03 138.695H97.1865C96.7158 138.695 96.3342 139.075 96.3342 139.543V163.454C96.3342 163.922 96.7158 164.302 97.1865 164.302H102.03C102.5 164.302 102.882 163.922 102.882 163.454V139.543C102.882 139.075 102.5 138.695 102.03 138.695Z" fill="#3D3D3D"/>
<path d="M113.967 163.145C111.941 161.952 110.354 160.333 109.211 158.297C108.067 156.262 107.496 154.039 107.496 151.638C107.496 149.237 108.067 146.969 109.211 144.923C110.354 142.878 111.941 141.259 113.967 140.066C115.993 138.873 118.28 138.274 120.826 138.274C122.505 138.274 124.077 138.528 125.552 139.025C127.022 139.528 128.344 140.238 129.507 141.157C129.747 141.355 129.87 141.573 129.87 141.817C129.87 141.974 129.808 142.152 129.676 142.35L127.308 145.679C127.139 145.933 126.93 146.06 126.69 146.06C126.507 146.06 126.313 145.989 126.114 145.847C125.358 145.309 124.577 144.898 123.766 144.619C122.954 144.334 122.051 144.192 121.056 144.192C119.79 144.192 118.616 144.512 117.534 145.157C116.453 145.801 115.595 146.689 114.952 147.832C114.314 148.968 113.993 150.237 113.993 151.638C113.993 153.039 114.314 154.277 114.962 155.394C115.61 156.511 116.478 157.394 117.565 158.033C118.652 158.678 119.821 158.998 121.076 158.998C122.072 158.998 122.97 158.856 123.776 158.571C124.577 158.287 125.358 157.876 126.114 157.343C126.328 157.201 126.512 157.13 126.67 157.13C126.91 157.13 127.124 157.267 127.308 157.531L129.676 160.861C129.819 161.058 129.89 161.251 129.89 161.434C129.89 161.617 129.803 161.789 129.635 161.942C128.456 162.891 127.114 163.627 125.613 164.149C124.113 164.672 122.5 164.936 120.78 164.936C118.264 164.936 115.993 164.337 113.967 163.145Z" fill="#3D3D3D"/>
<path d="M138.102 163.145C136.081 161.952 134.499 160.333 133.355 158.297C132.212 156.262 131.641 154.039 131.641 151.638C131.641 149.237 132.182 146.989 133.264 144.943C134.345 142.898 135.846 141.279 137.775 140.076C139.704 138.873 141.868 138.274 144.272 138.274C146.875 138.274 149.141 138.848 151.065 139.995C152.994 141.142 154.464 142.72 155.479 144.735C156.495 146.75 157.005 149.039 157.005 151.598C157.005 152.049 156.985 152.547 156.939 153.085C156.883 153.582 156.582 153.826 156.041 153.826H138.336C138.638 154.917 139.117 155.861 139.786 156.658C140.454 157.455 141.256 158.069 142.185 158.495C143.113 158.922 144.114 159.13 145.18 159.13C146.175 159.13 147.084 158.983 147.9 158.693C148.717 158.404 149.503 157.983 150.258 157.429C150.442 157.287 150.626 157.216 150.815 157.216C151.054 157.216 151.264 157.343 151.432 157.597L153.713 160.82C153.856 161.033 153.928 161.216 153.928 161.373C153.928 161.612 153.815 161.82 153.586 161.987C152.392 162.921 151.065 163.647 149.605 164.16C148.145 164.677 146.579 164.936 144.9 164.936C142.384 164.936 140.112 164.337 138.097 163.145H138.102ZM148.375 145.218C147.314 144.334 146.017 143.893 144.481 143.893C142.945 143.893 141.684 144.339 140.567 145.238C139.449 146.136 138.694 147.37 138.296 148.938H150.519C150.151 147.339 149.437 146.101 148.375 145.212V145.218Z" fill="#3D3D3D"/>
<path d="M28.8248 181.64C28.3042 181.416 27.8551 181.092 27.4724 180.67C27.4264 180.62 27.406 180.569 27.406 180.523C27.406 180.467 27.4315 180.411 27.4877 180.361L28.3348 179.549C28.3808 179.503 28.4318 179.478 28.4829 179.478C28.539 179.478 28.5951 179.503 28.6411 179.559C28.886 179.813 29.1667 180 29.478 180.132C29.7894 180.259 30.1109 180.325 30.4426 180.325C30.7948 180.325 31.0652 180.259 31.2541 180.132C31.4429 180 31.5399 179.823 31.5399 179.599C31.5399 179.447 31.499 179.315 31.4123 179.209C31.3255 179.102 31.1775 179 30.9683 178.904C30.759 178.808 30.4528 178.706 30.0598 178.589C29.4219 178.407 28.8656 178.127 28.3961 177.757C27.9266 177.386 27.6918 176.864 27.6918 176.199C27.6918 175.803 27.7939 175.437 27.998 175.102C28.2022 174.773 28.5135 174.504 28.9218 174.306C29.3351 174.108 29.8353 174.006 30.4273 174.006C30.9274 174.006 31.4072 174.092 31.8614 174.27C32.3207 174.448 32.729 174.686 33.0862 174.991C33.1424 175.036 33.1679 175.087 33.1679 175.143C33.1679 175.194 33.1475 175.245 33.1015 175.295L32.3258 176.173C32.2799 176.234 32.2237 176.26 32.1676 176.26C32.1217 176.26 32.0706 176.239 32.0196 176.199C31.8053 176.036 31.5654 175.894 31.2898 175.783C31.0142 175.671 30.7488 175.615 30.4834 175.615C30.1823 175.615 29.9476 175.666 29.774 175.767C29.6056 175.869 29.5189 176.016 29.5189 176.209C29.5189 176.361 29.5699 176.488 29.6669 176.59C29.7638 176.691 29.8965 176.777 30.0598 176.848C30.2232 176.919 30.4681 177.011 30.7948 177.112C30.8101 177.112 30.856 177.133 30.9325 177.158C31.4633 177.336 31.8971 177.523 32.2442 177.721C32.5912 177.924 32.8617 178.173 33.0556 178.468C33.2495 178.762 33.3465 179.127 33.3465 179.554C33.3465 180.041 33.2291 180.467 32.9893 180.833C32.7494 181.198 32.4126 181.477 31.9788 181.675C31.545 181.873 31.0448 181.97 30.4783 181.97C29.9118 181.97 29.3351 181.858 28.8146 181.635L28.8248 181.64Z" fill="#F6A122"/>
<path d="M35.7655 181.548C35.245 181.239 34.8367 180.823 34.5407 180.295C34.2447 179.767 34.0967 179.193 34.0967 178.574C34.0967 177.955 34.2345 177.371 34.5152 176.843C34.7959 176.316 35.1837 175.894 35.6788 175.585C36.1789 175.275 36.7352 175.118 37.3578 175.118C38.0315 175.118 38.6133 175.265 39.1135 175.559C39.6136 175.854 39.9913 176.265 40.2566 176.782C40.5169 177.305 40.6496 177.894 40.6496 178.554C40.6496 178.671 40.6445 178.797 40.6343 178.94C40.619 179.066 40.5424 179.132 40.4046 179.132H35.8319C35.9084 179.412 36.036 179.655 36.2044 179.863C36.378 180.071 36.5821 180.229 36.822 180.335C37.0618 180.447 37.3221 180.498 37.5977 180.498C37.8529 180.498 38.0876 180.462 38.302 180.386C38.5112 180.31 38.7154 180.203 38.9093 180.061C38.9552 180.026 39.0063 180.005 39.0522 180.005C39.1135 180.005 39.1696 180.036 39.2104 180.102L39.8024 180.934C39.8382 180.99 39.8586 181.036 39.8586 181.076C39.8586 181.137 39.8279 181.193 39.7718 181.234C39.4656 181.472 39.1186 181.66 38.746 181.797C38.3734 181.934 37.9652 181.995 37.5314 181.995C36.8832 181.995 36.2963 181.843 35.7757 181.533L35.7655 181.548ZM38.4194 176.914C38.1438 176.686 37.8121 176.574 37.414 176.574C37.0159 176.574 36.6893 176.691 36.4035 176.925C36.1126 177.158 35.9186 177.473 35.8166 177.879H38.9757C38.8787 177.468 38.695 177.143 38.4245 176.914H38.4194Z" fill="#F6A122"/>
<path d="M46.5902 175.229H47.8406C47.9886 175.229 48.06 175.301 48.06 175.448V181.625C48.06 181.772 47.9886 181.843 47.8406 181.843H46.876C46.7484 181.843 46.6667 181.782 46.6259 181.66L46.432 181.071C46.1819 181.325 45.8655 181.538 45.4776 181.701C45.0898 181.863 44.7172 181.95 44.3548 181.95C43.819 181.95 43.3494 181.828 42.9412 181.589C42.5329 181.351 42.2216 181.006 41.997 180.569C41.7725 180.127 41.6653 179.615 41.6653 179.031V175.448C41.6653 175.301 41.7367 175.229 41.8847 175.229H43.1351C43.2831 175.229 43.3546 175.301 43.3546 175.448V178.853C43.3546 179.163 43.4107 179.437 43.5281 179.671C43.6455 179.904 43.8088 180.087 44.0231 180.214C44.2375 180.341 44.4824 180.407 44.7682 180.407C45.054 180.407 45.3245 180.341 45.5695 180.198C45.8145 180.061 46.0084 179.879 46.1513 179.65C46.2942 179.422 46.3656 179.173 46.3656 178.909V175.448C46.3656 175.301 46.4371 175.229 46.5851 175.229H46.5902Z" fill="#F6A122"/>
<path d="M57.573 175.58C58.0936 175.884 58.5019 176.3 58.8081 176.823C59.1092 177.346 59.2623 177.925 59.2623 178.549C59.2623 179.173 59.1092 179.752 58.8081 180.28C58.507 180.808 58.0987 181.224 57.5781 181.533C57.0576 181.838 56.486 181.995 55.8685 181.995C55.4806 181.995 55.1387 181.929 54.8273 181.792C54.5211 181.655 54.2557 181.472 54.0312 181.234L53.9189 181.67C53.873 181.792 53.7913 181.853 53.6688 181.853H52.6941C52.5461 181.853 52.4746 181.782 52.4746 181.635V173.494C52.4746 173.346 52.5461 173.275 52.6941 173.275H53.9495C54.0975 173.275 54.169 173.346 54.169 173.494V175.752C54.6232 175.336 55.1897 175.128 55.8583 175.128C56.4758 175.128 57.0423 175.28 57.5628 175.585L57.573 175.58ZM56.731 180.148C56.9912 179.995 57.2005 179.782 57.3485 179.503C57.4965 179.229 57.573 178.914 57.573 178.569C57.573 178.224 57.4965 177.909 57.3485 177.63C57.1954 177.351 56.9912 177.133 56.7259 176.97C56.4605 176.808 56.1645 176.732 55.8327 176.732C55.501 176.732 55.205 176.813 54.9345 176.97C54.664 177.133 54.4548 177.351 54.3017 177.63C54.1486 177.909 54.072 178.224 54.072 178.569C54.072 178.914 54.1486 179.229 54.3017 179.498C54.4548 179.772 54.6691 179.985 54.9396 180.143C55.2101 180.3 55.5112 180.376 55.848 180.376C56.1849 180.376 56.4758 180.3 56.7361 180.148H56.731Z" fill="#F6A122"/>
<path d="M65.6212 175.23H66.5653C66.7133 175.23 66.7848 175.301 66.7848 175.448V181.625C66.7848 181.772 66.7133 181.843 66.5653 181.843H65.5905C65.4681 181.843 65.3864 181.782 65.3405 181.66L65.2282 181.224C64.7434 181.731 64.1309 181.985 63.3909 181.985C62.7683 181.985 62.2018 181.833 61.6812 181.523C61.1607 181.214 60.7524 180.797 60.4513 180.27C60.1502 179.742 59.9971 179.163 59.9971 178.539C59.9971 177.915 60.1502 177.341 60.4513 176.813C60.7524 176.285 61.1658 175.874 61.6863 175.57C62.2069 175.265 62.7734 175.113 63.3909 175.113C64.1411 175.113 64.7536 175.367 65.2384 175.874L65.3711 175.397C65.4119 175.28 65.4936 175.219 65.6212 175.219V175.23ZM64.33 180.143C64.6005 179.985 64.8097 179.772 64.9679 179.498C65.121 179.224 65.1976 178.914 65.1976 178.569C65.1976 178.224 65.121 177.909 64.9679 177.63C64.8148 177.351 64.6005 177.133 64.3351 176.97C64.0646 176.808 63.7686 176.732 63.4369 176.732C63.1051 176.732 62.8091 176.813 62.5437 176.97C62.2784 177.133 62.0742 177.351 61.9211 177.63C61.768 177.909 61.6965 178.224 61.6965 178.569C61.6965 178.914 61.7731 179.229 61.9211 179.503C62.0691 179.777 62.2732 179.995 62.5386 180.148C62.7989 180.3 63.1 180.376 63.4266 180.376C63.7533 180.376 64.0646 180.3 64.3351 180.143H64.33Z" fill="#F6A122"/>
<path d="M73.5266 175.478C73.9349 175.722 74.2462 176.062 74.4707 176.503C74.6953 176.945 74.8025 177.458 74.8025 178.041V181.625C74.8025 181.772 74.731 181.843 74.583 181.843H73.3275C73.1795 181.843 73.1081 181.772 73.1081 181.625V178.224C73.1081 177.909 73.0519 177.635 72.9448 177.402C72.8325 177.168 72.6743 176.986 72.4701 176.859C72.266 176.732 72.021 176.666 71.7403 176.666C71.4443 176.666 71.1739 176.732 70.9238 176.874C70.6737 177.011 70.4747 177.194 70.3267 177.422C70.1787 177.65 70.1021 177.899 70.1021 178.158V181.63C70.1021 181.777 70.0307 181.848 69.8827 181.848H68.6323C68.4843 181.848 68.4128 181.777 68.4128 181.63V175.453C68.4128 175.306 68.4843 175.234 68.6323 175.234H69.5969C69.7244 175.234 69.8061 175.295 69.8469 175.412L70.0409 176.006C70.296 175.752 70.6125 175.539 71.0003 175.372C71.3882 175.204 71.7608 175.123 72.118 175.123C72.659 175.123 73.1285 175.245 73.5368 175.483L73.5266 175.478Z" fill="#F6A122"/>
<path d="M77.4869 181.548C76.9613 181.239 76.553 180.823 76.257 180.295C75.961 179.767 75.813 179.193 75.813 178.574C75.813 177.955 75.961 177.366 76.257 176.838C76.553 176.31 76.9613 175.894 77.4869 175.585C78.0126 175.275 78.5995 175.123 79.2579 175.123C79.6917 175.123 80.1 175.189 80.4776 175.316C80.8604 175.448 81.1972 175.63 81.4983 175.869C81.5596 175.92 81.5902 175.975 81.5902 176.036C81.5902 176.077 81.5749 176.123 81.5392 176.173L80.9267 177.036C80.8808 177.102 80.8298 177.133 80.7685 177.133C80.7226 177.133 80.6716 177.112 80.6205 177.077C80.4266 176.94 80.2224 176.833 80.0132 176.757C79.8039 176.686 79.5692 176.645 79.314 176.645C78.9874 176.645 78.6863 176.727 78.4056 176.894C78.1249 177.062 77.9054 177.29 77.737 177.584C77.5737 177.879 77.4869 178.209 77.4869 178.569C77.4869 178.929 77.5686 179.249 77.737 179.539C77.9054 179.828 78.13 180.056 78.4107 180.219C78.6914 180.386 78.9925 180.467 79.3191 180.467C79.5743 180.467 79.809 180.432 80.0183 180.356C80.2275 180.285 80.4266 180.178 80.6205 180.036C80.6767 180 80.7226 179.98 80.7634 179.98C80.8247 179.98 80.8808 180.016 80.9267 180.087L81.5392 180.95C81.5749 181 81.5953 181.051 81.5953 181.097C81.5953 181.142 81.5749 181.188 81.5289 181.229C81.2227 181.472 80.8757 181.665 80.4878 181.797C80.1 181.934 79.6866 182 79.2375 182C78.5893 182 78.0024 181.848 77.4767 181.538L77.4869 181.548Z" fill="#F6A122"/>
<path d="M83.795 181.548C83.2591 181.244 82.8355 180.828 82.5242 180.3C82.2129 179.777 82.0547 179.198 82.0547 178.574C82.0547 177.95 82.2129 177.361 82.5242 176.833C82.8406 176.305 83.2642 175.884 83.8001 175.58C84.336 175.27 84.9229 175.118 85.5557 175.118C86.1885 175.118 86.7857 175.27 87.3215 175.58C87.8574 175.884 88.2861 176.305 88.6025 176.833C88.9189 177.361 89.072 177.945 89.072 178.574C89.072 179.204 88.9138 179.772 88.5974 180.3C88.281 180.823 87.8523 181.239 87.3113 181.548C86.7704 181.858 86.1834 182.01 85.5404 182.01C84.8974 182.01 84.3207 181.858 83.7848 181.548H83.795ZM86.4794 180.158C86.755 179.995 86.9796 179.777 87.1429 179.498C87.3062 179.219 87.3879 178.909 87.3879 178.569C87.3879 178.229 87.3062 177.914 87.1429 177.63C86.9796 177.346 86.7601 177.128 86.4794 176.965C86.2039 176.803 85.8977 176.727 85.5659 176.727C85.2342 176.727 84.9331 176.808 84.6524 176.965C84.3768 177.128 84.1522 177.346 83.9889 177.63C83.8256 177.914 83.744 178.224 83.744 178.569C83.744 178.914 83.8256 179.224 83.9889 179.498C84.1522 179.777 84.3717 179.995 84.6524 180.158C84.928 180.32 85.2342 180.401 85.5659 180.401C85.8977 180.401 86.1988 180.32 86.4794 180.158Z" fill="#F6A122"/>
<path d="M97.9214 173.27H99.1769C99.3249 173.27 99.3963 173.341 99.3963 173.488V181.63C99.3963 181.777 99.3249 181.848 99.1769 181.848H98.2021C98.0796 181.848 97.998 181.787 97.952 181.665L97.8398 181.229C97.3549 181.736 96.7425 181.99 96.0025 181.99C95.3799 181.99 94.8134 181.838 94.2928 181.528C93.7722 181.219 93.364 180.802 93.0629 180.275C92.7617 179.747 92.6086 179.168 92.6086 178.544C92.6086 177.919 92.7617 177.346 93.0629 176.818C93.364 176.29 93.7774 175.879 94.2979 175.575C94.8185 175.27 95.385 175.118 96.0025 175.118C96.6762 175.118 97.2375 175.326 97.6918 175.742V173.483C97.6918 173.336 97.7632 173.265 97.9112 173.265L97.9214 173.27ZM96.9415 180.143C97.212 179.985 97.4213 179.772 97.5795 179.498C97.7326 179.224 97.8091 178.914 97.8091 178.569C97.8091 178.224 97.7326 177.909 97.5795 177.63C97.4264 177.351 97.212 177.133 96.9466 176.97C96.6762 176.808 96.3801 176.732 96.0484 176.732C95.7167 176.732 95.4207 176.813 95.1553 176.97C94.8899 177.133 94.6858 177.351 94.5327 177.63C94.3796 177.909 94.3081 178.224 94.3081 178.569C94.3081 178.914 94.3847 179.229 94.5327 179.503C94.6807 179.777 94.8848 179.995 95.1502 180.148C95.4105 180.3 95.7116 180.376 96.0382 180.376C96.3648 180.376 96.6762 180.3 96.9466 180.143H96.9415Z" fill="#F6A122"/>
<path d="M101.019 174.219V173.077C101.019 172.93 101.091 172.859 101.239 172.859H102.51C102.658 172.859 102.729 172.93 102.729 173.077V174.219C102.729 174.367 102.658 174.438 102.51 174.438H101.239C101.091 174.438 101.019 174.367 101.019 174.219ZM102.499 181.848H101.249C101.101 181.848 101.029 181.777 101.029 181.63V175.453C101.029 175.306 101.101 175.234 101.249 175.234H102.499C102.647 175.234 102.719 175.306 102.719 175.453V181.63C102.719 181.777 102.647 181.848 102.499 181.848Z" fill="#F6A122"/>
<path d="M105.868 183.812C105.383 183.685 104.985 183.533 104.673 183.345C104.602 183.31 104.566 183.254 104.566 183.178C104.566 183.142 104.577 183.102 104.592 183.056L105.092 182.076C105.133 182 105.189 181.96 105.271 181.96C105.306 181.96 105.347 181.97 105.393 181.995C105.648 182.127 105.934 182.234 106.261 182.315C106.582 182.396 106.883 182.437 107.154 182.437C107.506 182.437 107.812 182.376 108.072 182.249C108.333 182.122 108.532 181.949 108.67 181.731C108.807 181.513 108.874 181.264 108.874 180.99V180.939C108.297 181.467 107.72 181.731 107.149 181.731C106.531 181.731 105.975 181.589 105.48 181.3C104.985 181.01 104.602 180.62 104.321 180.122C104.046 179.625 103.908 179.077 103.908 178.483C103.908 177.828 104.046 177.244 104.321 176.732C104.597 176.219 104.985 175.818 105.475 175.529C105.965 175.245 106.526 175.097 107.149 175.097C107.491 175.097 107.833 175.168 108.169 175.306C108.506 175.443 108.782 175.625 108.996 175.854L109.114 175.412C109.129 175.361 109.159 175.321 109.205 175.285C109.251 175.255 109.302 175.234 109.364 175.234H110.333C110.4 175.234 110.451 175.255 110.492 175.295C110.532 175.336 110.553 175.387 110.553 175.453V180.797C110.553 181.396 110.415 181.939 110.144 182.427C109.874 182.914 109.486 183.3 108.991 183.579C108.496 183.858 107.919 184 107.271 184C106.817 184 106.353 183.939 105.868 183.812ZM108.154 179.914C108.409 179.767 108.613 179.564 108.756 179.305C108.899 179.046 108.971 178.757 108.971 178.432C108.971 178.107 108.899 177.813 108.756 177.544C108.613 177.275 108.414 177.067 108.154 176.909C107.894 176.752 107.608 176.676 107.286 176.676C106.965 176.676 106.669 176.752 106.414 176.899C106.159 177.052 105.96 177.26 105.817 177.524C105.674 177.787 105.602 178.092 105.602 178.432C105.602 178.772 105.674 179.051 105.817 179.31C105.96 179.569 106.159 179.772 106.414 179.914C106.669 180.061 106.96 180.132 107.281 180.132C107.603 180.132 107.894 180.056 108.154 179.909V179.914Z" fill="#F6A122"/>
<path d="M112.181 174.219V173.077C112.181 172.93 112.252 172.859 112.4 172.859H113.671C113.819 172.859 113.891 172.93 113.891 173.077V174.219C113.891 174.367 113.819 174.438 113.671 174.438H112.4C112.252 174.438 112.181 174.367 112.181 174.219ZM113.666 181.848H112.416C112.268 181.848 112.196 181.777 112.196 181.63V175.453C112.196 175.306 112.268 175.234 112.416 175.234H113.666C113.814 175.234 113.885 175.306 113.885 175.453V181.63C113.885 181.777 113.814 181.848 113.666 181.848Z" fill="#F6A122"/>
<path d="M117.08 181.848H115.83C115.682 181.848 115.61 181.777 115.61 181.63V176.788H115.003C114.855 176.788 114.784 176.717 114.784 176.569V175.453C114.784 175.306 114.855 175.235 115.003 175.235H115.6V174.052C115.6 173.915 115.667 173.839 115.799 173.813L117.065 173.57C117.065 173.57 117.096 173.565 117.121 173.565C117.182 173.565 117.228 173.585 117.259 173.621C117.29 173.656 117.31 173.707 117.31 173.768V175.235H118.407C118.555 175.235 118.627 175.306 118.627 175.453V176.569C118.627 176.717 118.555 176.788 118.407 176.788H117.305V181.63C117.305 181.777 117.233 181.848 117.085 181.848H117.08Z" fill="#F6A122"/>
<path d="M124.613 175.23H125.557C125.705 175.23 125.777 175.301 125.777 175.448V181.625C125.777 181.772 125.705 181.843 125.557 181.843H124.582C124.46 181.843 124.378 181.782 124.332 181.66L124.22 181.224C123.735 181.731 123.123 181.985 122.383 181.985C121.76 181.985 121.194 181.833 120.673 181.523C120.153 181.214 119.744 180.797 119.443 180.27C119.142 179.742 118.989 179.163 118.989 178.539C118.989 177.915 119.142 177.341 119.443 176.813C119.744 176.285 120.158 175.874 120.678 175.57C121.199 175.265 121.765 175.113 122.383 175.113C123.133 175.113 123.746 175.367 124.23 175.874L124.363 175.397C124.404 175.28 124.486 175.219 124.613 175.219V175.23ZM123.322 180.143C123.592 179.985 123.802 179.772 123.96 179.498C124.113 179.224 124.19 178.914 124.19 178.569C124.19 178.224 124.113 177.909 123.96 177.63C123.807 177.351 123.592 177.133 123.327 176.97C123.057 176.808 122.761 176.732 122.429 176.732C122.097 176.732 121.801 176.813 121.536 176.97C121.27 177.133 121.066 177.351 120.913 177.63C120.76 177.909 120.688 178.224 120.688 178.569C120.688 178.914 120.765 179.229 120.913 179.503C121.061 179.777 121.265 179.995 121.531 180.148C121.791 180.3 122.092 180.376 122.419 180.376C122.745 180.376 123.057 180.3 123.327 180.143H123.322Z" fill="#F6A122"/>
<path d="M128.854 181.848H127.619C127.471 181.848 127.399 181.777 127.399 181.63V173.504C127.399 173.356 127.471 173.285 127.619 173.285H128.854C129.002 173.285 129.073 173.356 129.073 173.504V181.63C129.073 181.777 129.002 181.848 128.854 181.848Z" fill="#F6A122"/>
</g>
<defs>
<radialGradient id="paint0_radial_244_1749" cx="0" cy="0" r="1" gradientUnits="userSpaceOnUse" gradientTransform="translate(116.351 96.884) rotate(180) scale(64.0203 64.2542)">
<stop stop-color="#FCC01A"/>
<stop offset="1" stop-color="#E85926"/>
</radialGradient>
<radialGradient id="paint1_radial_244_1749" cx="0" cy="0" r="1" gradientUnits="userSpaceOnUse" gradientTransform="translate(111.053 61.8295) rotate(-180) scale(49.2498 49.4297)">
<stop stop-color="#FCC01A"/>
<stop offset="1" stop-color="#E85926"/>
</radialGradient>
<clipPath id="clip0_244_1749">
<rect width="157" height="184" fill="white"/>
</clipPath>
</defs>
</svg>
