<svg width="178" height="77" viewBox="0 0 178 77" fill="none" xmlns="http://www.w3.org/2000/svg">
<g clip-path="url(#clip0_244_1855)">
<path d="M36.7588 18.527L48.431 0.170044H25.0898L36.7588 18.527Z" fill="#F6A122"/>
<path d="M13.3987 38.484L25.0804 20.111L25.0708 20.1238L13.3987 38.484Z" fill="#3D3D3D"/>
<path d="M48.4405 57.1938L36.4307 38.3013H60.4535L48.4437 57.1938H48.4405ZM37.0901 38.6669L48.4373 56.5204L59.7877 38.6669H37.0901Z" fill="#3D3D3D"/>
<path d="M48.4406 57.492L36.1377 38.1409H60.7403L48.4374 57.492H48.4406ZM36.7207 38.4616L48.4406 56.8987L60.1605 38.4616H36.7207ZM48.4406 56.8154L36.8003 38.5065H60.0809L48.4406 56.8154ZM37.3833 38.8272L48.4406 56.2221L59.4979 38.8272H37.3833Z" fill="#3D3D3D"/>
<path d="M60.4503 38.6668H36.4275L48.4278 19.7935L48.603 20.0276L60.4503 38.6668ZM37.0901 38.3012H59.7877L48.4405 20.4477L37.0901 38.3012Z" fill="#3D3D3D"/>
<path d="M60.7435 38.8271H36.1409L48.4215 19.5112L48.7337 19.9314L60.7467 38.8271H60.7435ZM36.7207 38.5064H60.1605L48.4406 20.0725L36.7238 38.5064H36.7207ZM60.0809 38.4615H36.8003L48.4406 20.1526L60.0809 38.4615ZM37.3833 38.1408H59.4979L48.4406 20.7459L37.3833 38.1408Z" fill="#3D3D3D"/>
<path d="M25.0801 57.1938L13.0703 38.3013H37.0932L25.0833 57.1938H25.0801ZM13.7297 38.6669L25.0801 56.5204L36.4274 38.6669H13.7297Z" fill="#3D3D3D"/>
<path d="M25.0802 57.492L12.7773 38.1409H37.38L25.0771 57.492H25.0802ZM13.3603 38.4616L25.0802 56.8987L36.8002 38.4616H13.3603ZM25.0802 56.8154L13.44 38.5065H36.7205L25.0802 56.8154ZM14.0229 38.8272L25.0802 56.2221L36.1376 38.8272H14.0229Z" fill="#3D3D3D"/>
<path d="M37.09 38.6667H13.0703L25.0801 19.7742L37.09 38.6667ZM13.7297 38.3011H36.4274L25.0801 20.4509L13.7297 38.3011Z" fill="#3D3D3D"/>
<path d="M37.3832 38.8271H12.7773L25.0803 19.476L37.3832 38.8271ZM13.3603 38.5064H36.8002L25.0803 20.0725L13.3603 38.5064ZM36.7205 38.4615H13.44L25.0803 20.1526L36.7205 38.4615ZM14.0229 38.1408H36.1376L25.0803 20.7491L14.0229 38.1408Z" fill="#3D3D3D"/>
<path d="M60.1189 38.8207L48.1187 19.9409H72.1224L60.1189 38.8207ZM48.7813 20.3065L60.1189 38.144L71.4598 20.3065H48.7813Z" fill="#3D3D3D"/>
<path d="M60.119 39.1189L47.8257 19.7838H72.4124L60.119 39.1189ZM48.4087 20.1045L60.119 38.5256L71.8294 20.1045H48.4087ZM60.119 38.4423L48.4883 20.1462H71.7498L60.119 38.4423ZM49.0713 20.4669L60.119 37.8458L71.1668 20.4669H49.0681H49.0713Z" fill="#3D3D3D"/>
<path d="M71.7912 20.3065H48.3577L48.2271 20.1333L48.2844 20.0147L60.119 1.40112L72.0142 20.1109L71.8995 20.2937L71.7912 20.3065ZM48.7622 19.9441H71.4758L60.119 2.0778L48.7622 19.9441Z" fill="#3D3D3D"/>
<path d="M71.8007 20.4669H48.278L48.0422 20.1494L48.141 19.941L60.119 1.10291L72.2021 20.1109L71.9918 20.4445L71.8007 20.4669ZM48.4404 20.1462H71.807L71.8261 20.1109L60.119 1.69941L48.415 20.1173L48.4404 20.1494V20.1462ZM71.7688 20.1045H48.4723L60.119 1.77959L71.7656 20.1045H71.7688ZM49.0521 19.7838H71.1858L60.119 2.37609L49.0521 19.7838Z" fill="#3D3D3D"/>
<path d="M48.4516 20.1254L48.4407 20.111L48.4516 20.1254Z" fill="#3D3D3D"/>
<path d="M48.4516 20.1254L48.4407 20.111L48.4516 20.1254Z" fill="#3D3D3D"/>
<path d="M48.3228 20.22L48.3132 20.2072L48.5681 20.0148L48.3228 20.22Z" fill="#3D3D3D"/>
<path d="M48.5266 57.0559H24.9848L24.8669 56.8538L24.9275 56.7576L36.7589 38.144L48.6541 56.857L48.5266 57.0526V57.0559ZM25.4021 56.6903H48.1189L36.7589 38.8207L25.3989 56.6903H25.4021Z" fill="#3D3D3D"/>
<path d="M48.6126 57.2162H24.8956L24.6821 56.8506L24.7936 56.671L36.7589 37.8458L48.8451 56.8571L48.6126 57.213V57.2162ZM25.0771 56.8955H48.4406L48.466 56.8571L36.7589 38.4423L25.0517 56.8571L25.074 56.8955H25.0771ZM48.4087 56.8506H25.109L36.7589 38.5257L48.4087 56.8506ZM25.692 56.5299H47.8257L36.7589 39.119L25.692 56.5299Z" fill="#3D3D3D"/>
<path d="M36.7589 75.5988L24.8638 56.8858L24.9816 56.7062L25.0899 56.6902H48.533L48.6541 56.889L48.5935 56.9852L36.7621 75.5988H36.7589ZM25.4021 57.0558L36.7589 74.9221L48.1189 57.0558H25.4021Z" fill="#3D3D3D"/>
<path d="M36.7589 75.8971L24.6726 56.8859L24.886 56.5587L25.0644 56.5331H48.619L48.8388 56.8955L48.7241 57.0751L36.7589 75.9003V75.8971ZM25.0549 56.8859L36.7621 75.3006L48.4693 56.8859L48.447 56.8474H25.0804L25.0581 56.8859H25.0549ZM36.7589 75.2204L25.109 56.8955H48.4087L36.7589 75.2204ZM25.692 57.2162L36.7589 74.6271L47.8258 57.2162H25.692Z" fill="#3D3D3D"/>
<path d="M25.0707 20.3065H1.64042L1.49707 20.1205L13.3986 1.40112L25.2969 20.1173L25.1759 20.2969L25.0707 20.3097V20.3065ZM2.04181 19.9441H24.7585L13.3986 2.0778L2.04181 19.9441Z" fill="#3D3D3D"/>
<path d="M25.0803 20.4669H1.56394L1.30591 20.1302L13.4017 1.10291L25.4912 20.1173L25.2714 20.4445L25.0866 20.4669H25.0803ZM1.72004 20.1462H25.0866L25.1089 20.1109L13.4017 1.69941L1.69456 20.1141L1.72004 20.1494V20.1462ZM25.0484 20.1045H1.7519L13.4017 1.77959L25.0516 20.1045H25.0484ZM2.33487 19.7838H24.4686L13.4017 2.37609L2.33487 19.7838Z" fill="#3D3D3D"/>
<path d="M13.3985 38.8207L1.39819 19.9442H25.4019L13.3985 38.824V38.8207ZM2.0608 20.3066L13.3985 38.1441L24.7393 20.3066H2.0608Z" fill="#3D3D3D"/>
<path d="M13.4017 39.1189L1.1084 19.7838H25.6919L13.3986 39.1189H13.4017ZM1.69137 20.1045L13.4017 38.5256L25.1121 20.1045H1.69137ZM13.4017 38.4423L1.77101 20.1462H25.0325L13.4017 38.4423ZM2.35398 20.4669L13.4017 37.8458L24.4495 20.4669H2.35398Z" fill="#3D3D3D"/>
<path d="M13.4017 2.8154C13.9928 2.8154 14.472 2.33296 14.472 1.73784C14.472 1.14272 13.9928 0.660278 13.4017 0.660278C12.8105 0.660278 12.3313 1.14272 12.3313 1.73784C12.3313 2.33296 12.8105 2.8154 13.4017 2.8154Z" fill="#3D3D3D"/>
<path d="M13.4018 2.97899C12.7232 2.97899 12.1721 2.42418 12.1721 1.74108C12.1721 1.05799 12.7232 0.503174 13.4018 0.503174C14.0803 0.503174 14.6314 1.05799 14.6314 1.74108C14.6314 2.42418 14.0803 2.97899 13.4018 2.97899ZM13.4018 0.820669C12.8984 0.820669 12.4907 1.23117 12.4907 1.73788C12.4907 2.24459 12.8984 2.65509 13.4018 2.65509C13.9051 2.65509 14.3129 2.24459 14.3129 1.73788C14.3129 1.23117 13.9051 0.820669 13.4018 0.820669Z" fill="#3D3D3D"/>
<path d="M1.72955 21.2013C2.3207 21.2013 2.79992 20.7188 2.79992 20.1237C2.79992 19.5286 2.3207 19.0461 1.72955 19.0461C1.1384 19.0461 0.65918 19.5286 0.65918 20.1237C0.65918 20.7188 1.1384 21.2013 1.72955 21.2013Z" fill="#3D3D3D"/>
<path d="M1.72965 21.3649C1.05111 21.3649 0.5 20.81 0.5 20.1269C0.5 19.4439 1.05111 18.889 1.72965 18.889C2.40819 18.889 2.95931 19.4439 2.95931 20.1269C2.95931 20.81 2.40819 21.3649 1.72965 21.3649ZM1.72965 19.2065C1.22632 19.2065 0.818563 19.617 0.818563 20.1237C0.818563 20.6305 1.22632 21.041 1.72965 21.041C2.23298 21.041 2.64074 20.6305 2.64074 20.1237C2.64074 19.617 2.23298 19.2065 1.72965 19.2065Z" fill="#3D3D3D"/>
<path d="M25.0706 21.2013C25.6618 21.2013 26.141 20.7188 26.141 20.1237C26.141 19.5286 25.6618 19.0461 25.0706 19.0461C24.4795 19.0461 24.0002 19.5286 24.0002 20.1237C24.0002 20.7188 24.4795 21.2013 25.0706 21.2013Z" fill="#3D3D3D"/>
<path d="M25.0707 21.3649C24.3922 21.3649 23.8411 20.81 23.8411 20.1269C23.8411 19.4439 24.3922 18.889 25.0707 18.889C25.7493 18.889 26.3004 19.4439 26.3004 20.1269C26.3004 20.81 25.7493 21.3649 25.0707 21.3649ZM25.0707 19.2065C24.5674 19.2065 24.1596 19.617 24.1596 20.1237C24.1596 20.6305 24.5674 21.041 25.0707 21.041C25.574 21.041 25.9818 20.6305 25.9818 20.1237C25.9818 19.617 25.574 19.2065 25.0707 19.2065Z" fill="#3D3D3D"/>
<path d="M13.3985 39.5616C13.9896 39.5616 14.4689 39.0792 14.4689 38.4841C14.4689 37.8889 13.9896 37.4065 13.3985 37.4065C12.8073 37.4065 12.3281 37.8889 12.3281 38.4841C12.3281 39.0792 12.8073 39.5616 13.3985 39.5616Z" fill="#3D3D3D"/>
<path d="M13.3986 39.7219C12.7201 39.7219 12.1689 39.1671 12.1689 38.484C12.1689 37.8009 12.7201 37.2461 13.3986 37.2461C14.0771 37.2461 14.6283 37.8009 14.6283 38.484C14.6283 39.1671 14.0771 39.7219 13.3986 39.7219ZM13.3986 37.5668C12.8953 37.5668 12.4875 37.9773 12.4875 38.484C12.4875 38.9907 12.8953 39.4012 13.3986 39.4012C13.9019 39.4012 14.3097 38.9907 14.3097 38.484C14.3097 37.9773 13.9019 37.5668 13.3986 37.5668Z" fill="#3D3D3D"/>
<path d="M36.7588 39.5616C37.35 39.5616 37.8292 39.0792 37.8292 38.4841C37.8292 37.8889 37.35 37.4065 36.7588 37.4065C36.1677 37.4065 35.6885 37.8889 35.6885 38.4841C35.6885 39.0792 36.1677 39.5616 36.7588 39.5616Z" fill="#3D3D3D"/>
<path d="M36.759 39.7219C36.0804 39.7219 35.5293 39.1671 35.5293 38.484C35.5293 37.8009 36.0804 37.2461 36.759 37.2461C37.4375 37.2461 37.9886 37.8009 37.9886 38.484C37.9886 39.1671 37.4375 39.7219 36.759 39.7219ZM36.759 37.5668C36.2556 37.5668 35.8479 37.9773 35.8479 38.484C35.8479 38.9907 36.2556 39.4012 36.759 39.4012C37.2623 39.4012 37.67 38.9907 37.67 38.484C37.67 37.9773 37.2623 37.5668 36.759 37.5668Z" fill="#3D3D3D"/>
<path d="M48.431 21.1757C49.0221 21.1757 49.5013 20.6933 49.5013 20.0982C49.5013 19.5031 49.0221 19.0206 48.431 19.0206C47.8398 19.0206 47.3606 19.5031 47.3606 20.0982C47.3606 20.6933 47.8398 21.1757 48.431 21.1757Z" fill="#3D3D3D"/>
<path d="M48.4311 21.3361C47.7525 21.3361 47.2014 20.7812 47.2014 20.0981C47.2014 19.415 47.7525 18.8602 48.4311 18.8602C49.1096 18.8602 49.6607 19.415 49.6607 20.0981C49.6607 20.7812 49.1096 21.3361 48.4311 21.3361ZM48.4311 19.1777C47.9277 19.1777 47.52 19.5882 47.52 20.0949C47.52 20.6016 47.9277 21.0121 48.4311 21.0121C48.9344 21.0121 49.3422 20.6016 49.3422 20.0949C49.3422 19.5882 48.9344 19.1777 48.4311 19.1777Z" fill="#3D3D3D"/>
<path d="M71.7911 21.1757C72.3822 21.1757 72.8614 20.6933 72.8614 20.0982C72.8614 19.5031 72.3822 19.0206 71.7911 19.0206C71.1999 19.0206 70.7207 19.5031 70.7207 20.0982C70.7207 20.6933 71.1999 21.1757 71.7911 21.1757Z" fill="#3D3D3D"/>
<path d="M71.7912 21.3361C71.1126 21.3361 70.5615 20.7812 70.5615 20.0981C70.5615 19.415 71.1126 18.8602 71.7912 18.8602C72.4697 18.8602 73.0208 19.415 73.0208 20.0981C73.0208 20.7812 72.4697 21.3361 71.7912 21.3361ZM71.7912 19.1777C71.2878 19.1777 70.8801 19.5882 70.8801 20.0949C70.8801 20.6016 71.2878 21.0121 71.7912 21.0121C72.2945 21.0121 72.7023 20.6016 72.7023 20.0949C72.7023 19.5882 72.2945 19.1777 71.7912 19.1777Z" fill="#3D3D3D"/>
<path d="M60.119 2.8154C60.7101 2.8154 61.1893 2.33296 61.1893 1.73784C61.1893 1.14272 60.7101 0.660278 60.119 0.660278C59.5278 0.660278 59.0486 1.14272 59.0486 1.73784C59.0486 2.33296 59.5278 2.8154 60.119 2.8154Z" fill="#3D3D3D"/>
<path d="M60.1191 2.97899C59.4405 2.97899 58.8894 2.42418 58.8894 1.74108C58.8894 1.05799 59.4405 0.503174 60.1191 0.503174C60.7976 0.503174 61.3487 1.05799 61.3487 1.74108C61.3487 2.42418 60.7976 2.97899 60.1191 2.97899ZM60.1191 0.820669C59.6157 0.820669 59.208 1.23117 59.208 1.73788C59.208 2.24459 59.6157 2.65509 60.1191 2.65509C60.6224 2.65509 61.0301 2.24459 61.0301 1.73788C61.0301 1.23117 60.6224 0.820669 60.1191 0.820669Z" fill="#3D3D3D"/>
<path d="M25.0899 57.9507C25.6811 57.9507 26.1603 57.4682 26.1603 56.8731C26.1603 56.278 25.6811 55.7955 25.0899 55.7955C24.4988 55.7955 24.0195 56.278 24.0195 56.8731C24.0195 57.4682 24.4988 57.9507 25.0899 57.9507Z" fill="#3D3D3D"/>
<path d="M25.09 58.111C24.4115 58.111 23.8604 57.5561 23.8604 56.873C23.8604 56.1899 24.4115 55.6351 25.09 55.6351C25.7685 55.6351 26.3197 56.1899 26.3197 56.873C26.3197 57.5561 25.7685 58.111 25.09 58.111ZM25.09 55.9526C24.5867 55.9526 24.1789 56.3631 24.1789 56.8698C24.1789 57.3765 24.5867 57.787 25.09 57.787C25.5933 57.787 26.0011 57.3765 26.0011 56.8698C26.0011 56.3631 25.5933 55.9526 25.09 55.9526Z" fill="#3D3D3D"/>
<path d="M48.431 57.9507C49.0221 57.9507 49.5013 57.4682 49.5013 56.8731C49.5013 56.278 49.0221 55.7955 48.431 55.7955C47.8398 55.7955 47.3606 56.278 47.3606 56.8731C47.3606 57.4682 47.8398 57.9507 48.431 57.9507Z" fill="#3D3D3D"/>
<path d="M48.4311 58.111C47.7525 58.111 47.2014 57.5561 47.2014 56.873C47.2014 56.1899 47.7525 55.6351 48.4311 55.6351C49.1096 55.6351 49.6607 56.1899 49.6607 56.873C49.6607 57.5561 49.1096 58.111 48.4311 58.111ZM48.4311 55.9526C47.9277 55.9526 47.52 56.3631 47.52 56.8698C47.52 57.3765 47.9277 57.787 48.4311 57.787C48.9344 57.787 49.3422 57.3765 49.3422 56.8698C49.3422 56.3631 48.9344 55.9526 48.4311 55.9526Z" fill="#3D3D3D"/>
<path d="M60.1094 39.5776C60.7006 39.5776 61.1798 39.0952 61.1798 38.5C61.1798 37.9049 60.7006 37.4225 60.1094 37.4225C59.5183 37.4225 59.0391 37.9049 59.0391 38.5C59.0391 39.0952 59.5183 39.5776 60.1094 39.5776Z" fill="#3D3D3D"/>
<path d="M60.1095 39.7379C59.431 39.7379 58.8799 39.1831 58.8799 38.5C58.8799 37.8169 59.431 37.2621 60.1095 37.2621C60.7881 37.2621 61.3392 37.8169 61.3392 38.5C61.3392 39.1831 60.7881 39.7379 60.1095 39.7379ZM60.1095 37.5796C59.6062 37.5796 59.1984 37.9901 59.1984 38.4968C59.1984 39.0035 59.6062 39.414 60.1095 39.414C60.6129 39.414 61.0206 39.0035 61.0206 38.4968C61.0206 37.9901 60.6129 37.5796 60.1095 37.5796Z" fill="#3D3D3D"/>
<path d="M36.7588 76.3397C37.35 76.3397 37.8292 75.8572 37.8292 75.2621C37.8292 74.667 37.35 74.1846 36.7588 74.1846C36.1677 74.1846 35.6885 74.667 35.6885 75.2621C35.6885 75.8572 36.1677 76.3397 36.7588 76.3397Z" fill="#3D3D3D"/>
<path d="M36.759 76.5C36.0804 76.5 35.5293 75.9452 35.5293 75.2621C35.5293 74.579 36.0804 74.0242 36.759 74.0242C37.4375 74.0242 37.9886 74.579 37.9886 75.2621C37.9886 75.9452 37.4375 76.5 36.759 76.5ZM36.759 74.3417C36.2556 74.3417 35.8479 74.7522 35.8479 75.2589C35.8479 75.7656 36.2556 76.1761 36.759 76.1761C37.2623 76.1761 37.67 75.7656 37.67 75.2589C37.67 74.7522 37.2623 74.3417 36.759 74.3417Z" fill="#3D3D3D"/>
<path d="M89.7105 47.6335H86.9804C86.6777 47.6335 86.4738 47.4892 86.3687 47.2038L79.5515 29.4145C79.5164 29.3439 79.4973 29.2637 79.4973 29.1739C79.4973 29.0585 79.5387 28.9655 79.6247 28.8981C79.7076 28.8308 79.8222 28.7987 79.9656 28.7987H83.4794C83.7724 28.7987 83.9731 28.9462 84.0782 29.2413L88.3247 41.5081L88.3661 41.4953L92.5998 29.2445C92.6986 28.9494 92.8961 28.8019 93.1987 28.8019H96.7156C96.8654 28.8019 96.9832 28.834 97.0629 28.9013C97.1425 28.9687 97.1839 29.0585 97.1839 29.1771C97.1839 29.2573 97.1648 29.3375 97.1298 29.4177L90.3253 47.207C90.2201 47.4924 90.0131 47.6368 89.7136 47.6368L89.7105 47.6335Z" fill="#3D3D3D"/>
<path d="M101.217 46.9023C99.9553 46.1486 98.9678 45.1256 98.2542 43.8396C97.5406 42.5536 97.1838 41.1489 97.1838 39.632C97.1838 38.115 97.5215 36.6943 98.1969 35.4019C98.8722 34.1095 99.8088 33.0864 101.013 32.3264C102.217 31.5663 103.568 31.1879 105.068 31.1879C106.693 31.1879 108.107 31.5503 109.308 32.2751C110.513 32.9999 111.43 33.9972 112.064 35.2704C112.698 36.5436 113.016 37.99 113.016 39.6063C113.016 39.8917 113.004 40.206 112.975 40.546C112.94 40.8603 112.752 41.0142 112.414 41.0142H101.363C101.551 41.7037 101.851 42.3002 102.268 42.8037C102.685 43.3072 103.186 43.6953 103.765 43.9647C104.345 44.234 104.97 44.3655 105.635 44.3655C106.257 44.3655 106.824 44.2725 107.333 44.0897C107.843 43.9069 108.334 43.6407 108.805 43.2912C108.92 43.2014 109.034 43.1565 109.152 43.1565C109.302 43.1565 109.433 43.2367 109.538 43.397L110.962 45.4335C111.051 45.5682 111.095 45.6836 111.095 45.783C111.095 45.9338 111.025 46.0653 110.882 46.1711C110.137 46.7612 109.308 47.2198 108.397 47.5437C107.486 47.8708 106.508 48.0344 105.46 48.0344C103.89 48.0344 102.472 47.6559 101.214 46.9023H101.217ZM107.626 35.5751C106.964 35.0171 106.155 34.7381 105.196 34.7381C104.237 34.7381 103.45 35.0203 102.752 35.5879C102.055 36.1556 101.583 36.9349 101.335 37.9258H108.964C108.735 36.9156 108.289 36.1331 107.626 35.5719V35.5751ZM107.986 26.031C108.069 26.0887 108.114 26.1657 108.114 26.2651C108.114 26.3709 108.066 26.4896 107.967 26.6147L105.877 29.3342C105.699 29.5491 105.479 29.6549 105.212 29.6549H103.402C103.252 29.6549 103.135 29.6229 103.049 29.5555C102.963 29.4882 102.921 29.3984 102.921 29.2797C102.921 29.2091 102.943 29.1194 102.988 29.0103L104.278 26.3549C104.393 26.0791 104.606 25.938 104.919 25.938H107.649C107.792 25.938 107.903 25.9669 107.99 26.0246L107.986 26.031Z" fill="#3D3D3D"/>
<path d="M127.18 32.1116C127.368 32.227 127.46 32.3746 127.46 32.5541C127.46 32.6439 127.435 32.7434 127.381 32.8492L126.049 35.3699C125.944 35.5655 125.804 35.665 125.635 35.665C125.53 35.665 125.425 35.6329 125.329 35.572C124.654 35.2064 124.017 35.0236 123.411 35.0236C122.806 35.0236 122.268 35.1967 121.732 35.5399C121.2 35.883 120.77 36.3897 120.442 37.0536C120.114 37.7207 119.948 38.5128 119.948 39.4332V47.1012C119.948 47.4604 119.77 47.6368 119.416 47.6368H116.393C116.04 47.6368 115.861 47.4572 115.861 47.1012V31.9929C115.861 31.6369 116.04 31.4573 116.393 31.4573H118.722C119.025 31.4573 119.222 31.6017 119.321 31.8871L119.84 33.4168C120.347 32.7017 120.936 32.1533 121.611 31.7684C122.287 31.3836 123.077 31.1912 123.981 31.1912C125.039 31.1912 126.103 31.499 127.177 32.1148L127.18 32.1116Z" fill="#3D3D3D"/>
<path d="M133.905 47.6335H130.881C130.525 47.6335 130.349 47.4539 130.349 47.0979V35.2608H128.884C128.53 35.2608 128.352 35.0812 128.352 34.7252V31.9896C128.352 31.6337 128.53 31.4541 128.884 31.4541H130.321V28.5581C130.321 28.2278 130.48 28.0322 130.799 27.968L133.86 27.3779C133.895 27.3683 133.94 27.3651 133.994 27.3651C134.137 27.3651 134.245 27.41 134.328 27.4998C134.408 27.5896 134.449 27.7115 134.449 27.8622V31.4541H137.1C137.453 31.4541 137.632 31.6337 137.632 31.9896V34.7252C137.632 35.0812 137.453 35.2608 137.1 35.2608H134.437V47.0979C134.437 47.4571 134.258 47.6335 133.905 47.6335Z" fill="#3D3D3D"/>
<path d="M143.213 25.6494H140.136C139.842 25.6494 139.604 25.8892 139.604 26.185V28.9751C139.604 29.2709 139.842 29.5107 140.136 29.5107H143.213C143.507 29.5107 143.745 29.2709 143.745 28.9751V26.185C143.745 25.8892 143.507 25.6494 143.213 25.6494Z" fill="#3D3D3D"/>
<path d="M143.184 31.4541H140.161C139.867 31.4541 139.629 31.6939 139.629 31.9897V47.098C139.629 47.3937 139.867 47.6335 140.161 47.6335H143.184C143.478 47.6335 143.716 47.3937 143.716 47.098V31.9897C143.716 31.6939 143.478 31.4541 143.184 31.4541Z" fill="#3D3D3D"/>
<path d="M150.636 46.9024C149.371 46.1487 148.38 45.1257 147.667 43.8397C146.953 42.5537 146.596 41.149 146.596 39.6321C146.596 38.1152 146.953 36.6816 147.667 35.3892C148.38 34.0968 149.371 33.0737 150.636 32.3201C151.9 31.5664 153.327 31.188 154.917 31.188C155.965 31.188 156.946 31.3483 157.867 31.6626C158.784 31.9801 159.609 32.4291 160.336 33.0096C160.486 33.1347 160.562 33.2726 160.562 33.4265C160.562 33.5259 160.524 33.6382 160.441 33.7632L158.963 35.867C158.858 36.0274 158.727 36.1076 158.577 36.1076C158.463 36.1076 158.342 36.0627 158.217 35.9729C157.746 35.6329 157.258 35.3732 156.752 35.1968C156.245 35.0172 155.682 34.9274 155.06 34.9274C154.27 34.9274 153.538 35.1294 152.862 35.5367C152.187 35.944 151.652 36.5052 151.25 37.2268C150.852 37.9452 150.652 38.7469 150.652 39.6321C150.652 40.5172 150.852 41.2997 151.257 42.0053C151.661 42.7108 152.203 43.2688 152.881 43.6729C153.56 44.0802 154.289 44.2823 155.073 44.2823C155.694 44.2823 156.255 44.1925 156.758 44.0129C157.259 43.8333 157.746 43.5735 158.217 43.2368C158.351 43.147 158.466 43.1021 158.565 43.1021C158.714 43.1021 158.848 43.1887 158.963 43.3554L160.441 45.4592C160.53 45.5843 160.575 45.7062 160.575 45.8216C160.575 45.9371 160.521 46.0461 160.415 46.1423C159.68 46.742 158.842 47.2071 157.905 47.5374C156.969 47.8677 155.962 48.0345 154.888 48.0345C153.318 48.0345 151.9 47.656 150.636 46.9024Z" fill="#3D3D3D"/>
<path d="M165.7 46.9024C164.439 46.1487 163.451 45.1257 162.738 43.8397C162.024 42.5537 161.667 41.149 161.667 39.6321C161.667 38.1152 162.005 36.6944 162.681 35.402C163.356 34.1096 164.292 33.0865 165.497 32.3265C166.701 31.5664 168.051 31.188 169.552 31.188C171.177 31.188 172.591 31.5504 173.792 32.2752C174.996 33 175.914 33.9973 176.548 35.2705C177.181 36.5437 177.5 37.9901 177.5 39.6064C177.5 39.8918 177.487 40.2061 177.459 40.5461C177.424 40.8604 177.236 41.0143 176.898 41.0143H165.847C166.035 41.7038 166.334 42.3003 166.752 42.8038C167.169 43.3073 167.669 43.6954 168.249 43.9648C168.829 44.2342 169.453 44.3656 170.119 44.3656C170.74 44.3656 171.307 44.2726 171.817 44.0898C172.327 43.907 172.817 43.6409 173.289 43.2913C173.403 43.2015 173.518 43.1566 173.636 43.1566C173.786 43.1566 173.916 43.2368 174.021 43.3971L175.445 45.4336C175.535 45.5683 175.579 45.6837 175.579 45.7831C175.579 45.9339 175.509 46.0654 175.366 46.1712C174.62 46.7613 173.792 47.2199 172.881 47.5438C171.97 47.8709 170.992 48.0345 169.944 48.0345C168.373 48.0345 166.956 47.656 165.697 46.9024H165.7ZM172.113 35.5752C171.451 35.0172 170.641 34.7382 169.683 34.7382C168.724 34.7382 167.937 35.0204 167.239 35.588C166.541 36.1557 166.07 36.935 165.822 37.9259H173.451C173.222 36.9157 172.776 36.1332 172.113 35.572V35.5752Z" fill="#3D3D3D"/>
<path d="M80.3829 58.5889C80.058 58.4478 79.7777 58.2425 79.5387 57.9763C79.5101 57.9443 79.4973 57.9122 79.4973 57.8833C79.4973 57.848 79.5132 57.8128 79.5483 57.7807L80.0771 57.2676C80.1058 57.2387 80.1376 57.2227 80.1695 57.2227C80.2045 57.2227 80.2396 57.2387 80.2682 57.274C80.4211 57.4343 80.5964 57.553 80.7907 57.6364C80.985 57.7166 81.1857 57.7582 81.3928 57.7582C81.6126 57.7582 81.7814 57.7166 81.8993 57.6364C82.0172 57.553 82.0777 57.4408 82.0777 57.2996C82.0777 57.2034 82.0522 57.12 81.998 57.0527C81.9439 56.9854 81.8515 56.9212 81.7209 56.8603C81.5903 56.7993 81.3991 56.7352 81.1538 56.6614C80.7556 56.546 80.4084 56.3696 80.1153 56.1355C79.8222 55.9014 79.6757 55.5711 79.6757 55.1509C79.6757 54.9008 79.7394 54.6699 79.8668 54.4582C79.9943 54.2498 80.1886 54.0798 80.4434 53.9547C80.7015 53.8296 81.0137 53.7655 81.3832 53.7655C81.6954 53.7655 81.9948 53.82 82.2784 53.9323C82.5651 54.0445 82.8199 54.1952 83.0429 54.3877C83.078 54.4165 83.0939 54.4486 83.0939 54.4839C83.0939 54.5159 83.0812 54.548 83.0525 54.5801L82.5683 55.1349C82.5396 55.1734 82.5046 55.1894 82.4695 55.1894C82.4408 55.1894 82.409 55.1766 82.3771 55.1509C82.2433 55.0483 82.0936 54.9585 81.9216 54.888C81.7496 54.8174 81.5839 54.7821 81.4182 54.7821C81.2303 54.7821 81.0838 54.8142 80.9754 54.8783C80.8703 54.9425 80.8162 55.0355 80.8162 55.1573C80.8162 55.2536 80.848 55.3337 80.9086 55.3979C80.9691 55.462 81.0519 55.5165 81.1538 55.5614C81.2558 55.6063 81.4087 55.6641 81.6126 55.7282C81.6221 55.7282 81.6508 55.741 81.6986 55.7571C82.0299 55.8693 82.3007 55.988 82.5173 56.113C82.7339 56.2413 82.9028 56.3985 83.0238 56.5845C83.1449 56.7705 83.2054 57.0014 83.2054 57.2708C83.2054 57.5787 83.1321 57.848 82.9824 58.0789C82.8327 58.3099 82.6224 58.4862 82.3516 58.6113C82.0809 58.7364 81.7687 58.7973 81.4151 58.7973C81.0615 58.7973 80.7015 58.7268 80.3766 58.5857L80.3829 58.5889Z" fill="#F6A122"/>
<path d="M84.7153 58.5311C84.3903 58.3354 84.1355 58.0725 83.9507 57.7389C83.766 57.4054 83.6736 57.043 83.6736 56.6518C83.6736 56.2605 83.7596 55.8917 83.9348 55.5582C84.11 55.2246 84.3521 54.9584 84.6611 54.7628C84.9733 54.5672 85.3206 54.4678 85.7092 54.4678C86.1297 54.4678 86.4929 54.5608 86.8051 54.7468C87.1173 54.9328 87.353 55.1926 87.5186 55.5197C87.6811 55.85 87.7639 56.222 87.7639 56.6389C87.7639 56.7127 87.7607 56.7929 87.7544 56.8827C87.7448 56.9628 87.697 57.0045 87.611 57.0045H84.7567C84.8045 57.1809 84.8841 57.3349 84.9893 57.4663C85.0976 57.5978 85.225 57.6972 85.3747 57.7646C85.5244 57.8351 85.6869 57.8672 85.8589 57.8672C86.0182 57.8672 86.1647 57.8448 86.2985 57.7967C86.4292 57.7486 86.5566 57.6812 86.6776 57.5914C86.7063 57.569 86.7382 57.5561 86.7668 57.5561C86.8051 57.5561 86.8401 57.5754 86.8656 57.6171L87.2351 58.143C87.2574 58.1783 87.2702 58.2072 87.2702 58.2328C87.2702 58.2713 87.251 58.3066 87.216 58.3322C87.0249 58.483 86.8082 58.6016 86.5757 58.6882C86.3431 58.7748 86.0883 58.8133 85.8175 58.8133C85.4129 58.8133 85.0466 58.7171 84.7217 58.5214L84.7153 58.5311ZM86.3718 55.6031C86.1998 55.4587 85.9927 55.3882 85.7442 55.3882C85.4958 55.3882 85.2919 55.4619 85.1135 55.6095C84.9319 55.757 84.8109 55.9558 84.7471 56.2124H86.719C86.6585 55.9526 86.5438 55.7474 86.375 55.6031H86.3718Z" fill="#F6A122"/>
<path d="M91.4721 54.5383H92.2526C92.3449 54.5383 92.3895 54.5832 92.3895 54.6762V58.5792C92.3895 58.6722 92.3449 58.7171 92.2526 58.7171H91.6505C91.5708 58.7171 91.5199 58.6786 91.4944 58.6016L91.3733 58.2296C91.2172 58.39 91.0197 58.5247 90.7776 58.6273C90.5355 58.7299 90.303 58.7844 90.0768 58.7844C89.7423 58.7844 89.4492 58.7075 89.1944 58.5567C88.9395 58.406 88.7452 58.1879 88.605 57.9121C88.4648 57.6331 88.3979 57.3092 88.3979 56.9404V54.6762C88.3979 54.5832 88.4425 54.5383 88.5349 54.5383H89.3154C89.4078 54.5383 89.4524 54.5832 89.4524 54.6762V56.8281C89.4524 57.0238 89.4874 57.197 89.5607 57.3445C89.634 57.492 89.7359 57.6075 89.8697 57.6876C90.0035 57.7678 90.1564 57.8095 90.3348 57.8095C90.5132 57.8095 90.682 57.7678 90.835 57.678C90.9879 57.5914 91.1089 57.476 91.1981 57.3316C91.2873 57.1873 91.3319 57.0302 91.3319 56.8634V54.6762C91.3319 54.5832 91.3765 54.5383 91.4689 54.5383H91.4721Z" fill="#F6A122"/>
<path d="M98.3306 54.7597C98.6556 54.9521 98.9104 55.2151 99.1016 55.5454C99.2895 55.8757 99.3851 56.2413 99.3851 56.6358C99.3851 57.0303 99.2895 57.3959 99.1016 57.7294C98.9136 58.0629 98.6588 58.3259 98.3338 58.5215C98.0089 58.714 97.6521 58.8134 97.2666 58.8134C97.0245 58.8134 96.8111 58.7717 96.6168 58.6851C96.4256 58.5985 96.26 58.4831 96.1198 58.3323L96.0497 58.6081C96.0211 58.6851 95.9701 58.7236 95.8936 58.7236H95.2852C95.1928 58.7236 95.1482 58.6787 95.1482 58.5857V53.4416C95.1482 53.3486 95.1928 53.3037 95.2852 53.3037H96.0688C96.1612 53.3037 96.2058 53.3486 96.2058 53.4416V54.8687C96.4893 54.6058 96.843 54.4743 97.2603 54.4743C97.6457 54.4743 97.9993 54.5705 98.3243 54.7629L98.3306 54.7597ZM97.805 57.646C97.9675 57.5498 98.0981 57.4151 98.1905 57.2387C98.2829 57.0655 98.3306 56.8667 98.3306 56.6486C98.3306 56.4306 98.2829 56.2317 98.1905 56.0553C98.0949 55.8789 97.9675 55.741 97.8018 55.6384C97.6362 55.5358 97.4514 55.4877 97.2443 55.4877C97.0373 55.4877 96.8525 55.539 96.6837 55.6384C96.5148 55.741 96.3842 55.8789 96.2887 56.0553C96.1931 56.2317 96.1453 56.4306 96.1453 56.6486C96.1453 56.8667 96.1931 57.0656 96.2887 57.2355C96.3842 57.4087 96.518 57.5434 96.6869 57.6428C96.8557 57.7422 97.0436 57.7903 97.2539 57.7903C97.4642 57.7903 97.6457 57.7422 97.8082 57.646H97.805Z" fill="#F6A122"/>
<path d="M103.355 54.5384H103.944C104.036 54.5384 104.081 54.5833 104.081 54.6763V58.5792C104.081 58.6722 104.036 58.7171 103.944 58.7171H103.335C103.259 58.7171 103.208 58.6786 103.179 58.6017L103.109 58.3259C102.807 58.6466 102.424 58.8069 101.962 58.8069C101.574 58.8069 101.22 58.7107 100.895 58.5151C100.57 58.3194 100.315 58.0565 100.128 57.7229C99.9396 57.3894 99.844 57.0238 99.844 56.6293C99.844 56.2349 99.9396 55.8725 100.128 55.5389C100.315 55.2054 100.574 54.9457 100.898 54.7532C101.223 54.5608 101.577 54.4646 101.962 54.4646C102.431 54.4646 102.813 54.625 103.116 54.9457L103.198 54.6442C103.224 54.5704 103.275 54.5319 103.355 54.5319V54.5384ZM102.549 57.6428C102.717 57.5433 102.848 57.4086 102.947 57.2355C103.042 57.0623 103.09 56.8667 103.09 56.6486C103.09 56.4305 103.042 56.2317 102.947 56.0553C102.851 55.8789 102.717 55.741 102.552 55.6384C102.383 55.5357 102.198 55.4876 101.991 55.4876C101.784 55.4876 101.599 55.5389 101.434 55.6384C101.268 55.741 101.141 55.8789 101.045 56.0553C100.949 56.2317 100.905 56.4305 100.905 56.6486C100.905 56.8667 100.953 57.0655 101.045 57.2387C101.137 57.4119 101.265 57.5498 101.43 57.646C101.593 57.7422 101.781 57.7903 101.985 57.7903C102.189 57.7903 102.383 57.7422 102.552 57.6428H102.549Z" fill="#F6A122"/>
<path d="M108.289 54.6956C108.544 54.8495 108.738 55.0644 108.878 55.3434C109.018 55.6224 109.085 55.9463 109.085 56.3151V58.5793C109.085 58.6723 109.041 58.7172 108.948 58.7172H108.165C108.072 58.7172 108.028 58.6723 108.028 58.5793V56.4306C108.028 56.2317 107.993 56.0585 107.926 55.911C107.856 55.7635 107.757 55.6481 107.63 55.5679C107.502 55.4877 107.349 55.446 107.174 55.446C106.989 55.446 106.82 55.4877 106.664 55.5775C106.508 55.6641 106.384 55.7795 106.292 55.9239C106.199 56.0682 106.151 56.2253 106.151 56.3889V58.5825C106.151 58.6755 106.107 58.7204 106.014 58.7204H105.234C105.142 58.7204 105.097 58.6755 105.097 58.5825V54.6795C105.097 54.5865 105.142 54.5416 105.234 54.5416H105.836C105.916 54.5416 105.967 54.5801 105.992 54.6539L106.113 55.0291C106.272 54.8687 106.47 54.734 106.712 54.6282C106.954 54.5224 107.187 54.4711 107.41 54.4711C107.747 54.4711 108.04 54.548 108.295 54.6988L108.289 54.6956Z" fill="#F6A122"/>
<path d="M110.761 58.5312C110.433 58.3355 110.178 58.0726 109.993 57.739C109.809 57.4055 109.716 57.0431 109.716 56.6518C109.716 56.2606 109.809 55.8886 109.993 55.555C110.178 55.2215 110.433 54.9585 110.761 54.7629C111.089 54.5673 111.456 54.4711 111.867 54.4711C112.137 54.4711 112.392 54.5128 112.628 54.5929C112.867 54.6763 113.077 54.7918 113.265 54.9425C113.303 54.9746 113.322 55.0098 113.322 55.0483C113.322 55.074 113.313 55.1029 113.291 55.1349L112.908 55.6801C112.88 55.7218 112.848 55.7411 112.81 55.7411C112.781 55.7411 112.749 55.7282 112.717 55.7058C112.596 55.6192 112.469 55.5518 112.338 55.5037C112.207 55.4588 112.061 55.4332 111.902 55.4332C111.698 55.4332 111.51 55.4845 111.335 55.5903C111.159 55.6962 111.022 55.8405 110.917 56.0265C110.815 56.2125 110.761 56.4209 110.761 56.6486C110.761 56.8763 110.812 57.0784 110.917 57.2612C111.022 57.444 111.163 57.5883 111.338 57.6909C111.513 57.7968 111.701 57.8481 111.905 57.8481C112.064 57.8481 112.211 57.8256 112.341 57.7775C112.472 57.7326 112.596 57.6653 112.717 57.5755C112.752 57.553 112.781 57.5402 112.806 57.5402C112.845 57.5402 112.88 57.5626 112.908 57.6075L113.291 58.1527C113.313 58.1848 113.326 58.2169 113.326 58.2457C113.326 58.2746 113.313 58.3035 113.284 58.3291C113.093 58.4831 112.876 58.6049 112.634 58.6883C112.392 58.7749 112.134 58.8166 111.854 58.8166C111.449 58.8166 111.083 58.7204 110.755 58.5247L110.761 58.5312Z" fill="#F6A122"/>
<path d="M114.699 58.5311C114.364 58.3386 114.1 58.0757 113.905 57.7421C113.711 57.4118 113.612 57.0462 113.612 56.6518C113.612 56.2573 113.711 55.8853 113.905 55.5517C114.103 55.2182 114.367 54.952 114.702 54.7596C115.036 54.564 115.403 54.4678 115.798 54.4678C116.193 54.4678 116.565 54.564 116.9 54.7596C117.234 54.952 117.502 55.2182 117.699 55.5517C117.897 55.8853 117.993 56.2541 117.993 56.6518C117.993 57.0494 117.894 57.4086 117.696 57.7421C117.499 58.0725 117.231 58.3354 116.894 58.5311C116.556 58.7267 116.189 58.8229 115.788 58.8229C115.387 58.8229 115.027 58.7267 114.692 58.5311H114.699ZM116.371 57.6523C116.543 57.5497 116.683 57.4118 116.785 57.2354C116.887 57.059 116.938 56.8634 116.938 56.6485C116.938 56.4337 116.887 56.2348 116.785 56.0552C116.683 55.8757 116.546 55.7378 116.371 55.6351C116.199 55.5325 116.008 55.4844 115.801 55.4844C115.594 55.4844 115.406 55.5357 115.231 55.6351C115.059 55.7378 114.918 55.8757 114.816 56.0552C114.715 56.2348 114.664 56.4305 114.664 56.6485C114.664 56.8666 114.715 57.0623 114.816 57.2354C114.918 57.4118 115.055 57.5497 115.231 57.6523C115.403 57.755 115.594 57.8063 115.801 57.8063C116.008 57.8063 116.196 57.755 116.371 57.6523Z" fill="#F6A122"/>
<path d="M123.516 53.3004H124.3C124.392 53.3004 124.437 53.3453 124.437 53.4384V58.5824C124.437 58.6754 124.392 58.7203 124.3 58.7203H123.692C123.615 58.7203 123.564 58.6818 123.536 58.6049L123.465 58.3291C123.163 58.6498 122.781 58.8101 122.319 58.8101C121.93 58.8101 121.576 58.7139 121.251 58.5183C120.927 58.3226 120.672 58.0597 120.484 57.7261C120.296 57.3926 120.2 57.027 120.2 56.6325C120.2 56.2381 120.296 55.8757 120.484 55.5422C120.672 55.2086 120.93 54.9489 121.255 54.7564C121.58 54.564 121.933 54.4678 122.319 54.4678C122.739 54.4678 123.09 54.5993 123.373 54.8623V53.4351C123.373 53.3421 123.418 53.2972 123.51 53.2972L123.516 53.3004ZM122.905 57.6428C123.074 57.5433 123.204 57.4086 123.303 57.2355C123.399 57.0623 123.446 56.8667 123.446 56.6486C123.446 56.4305 123.399 56.2317 123.303 56.0553C123.207 55.8789 123.074 55.741 122.908 55.6384C122.739 55.5357 122.554 55.4876 122.347 55.4876C122.14 55.4876 121.955 55.5389 121.79 55.6384C121.624 55.741 121.497 55.8789 121.401 56.0553C121.306 56.2317 121.261 56.4305 121.261 56.6486C121.261 56.8667 121.309 57.0655 121.401 57.2387C121.494 57.4118 121.621 57.5498 121.787 57.646C121.949 57.7422 122.137 57.7903 122.341 57.7903C122.545 57.7903 122.739 57.7422 122.908 57.6428H122.905Z" fill="#F6A122"/>
<path d="M125.447 53.897V53.1754C125.447 53.0824 125.491 53.0375 125.584 53.0375H126.377C126.469 53.0375 126.514 53.0824 126.514 53.1754V53.897C126.514 53.99 126.469 54.0349 126.377 54.0349H125.584C125.491 54.0349 125.447 53.99 125.447 53.897ZM126.374 58.7203H125.593C125.501 58.7203 125.456 58.6754 125.456 58.5824V54.6795C125.456 54.5865 125.501 54.5416 125.593 54.5416H126.374C126.466 54.5416 126.511 54.5865 126.511 54.6795V58.5824C126.511 58.6754 126.466 58.7203 126.374 58.7203Z" fill="#F6A122"/>
<path d="M128.476 59.9614C128.174 59.8812 127.925 59.785 127.731 59.6664C127.686 59.6439 127.664 59.6086 127.664 59.5605C127.664 59.5381 127.67 59.5124 127.68 59.4836L127.992 58.8646C128.018 58.8165 128.053 58.7908 128.104 58.7908C128.126 58.7908 128.152 58.7973 128.18 58.8133C128.339 58.8967 128.518 58.964 128.722 59.0153C128.922 59.0667 129.11 59.0923 129.279 59.0923C129.499 59.0923 129.69 59.0538 129.853 58.9736C130.015 58.8935 130.139 58.7844 130.225 58.6465C130.311 58.5086 130.353 58.3515 130.353 58.1783V58.1462C129.993 58.4798 129.633 58.6465 129.276 58.6465C128.891 58.6465 128.543 58.5567 128.234 58.3739C127.925 58.1911 127.686 57.9442 127.511 57.6299C127.339 57.3156 127.253 56.9693 127.253 56.594C127.253 56.1803 127.339 55.8115 127.511 55.4876C127.683 55.1637 127.925 54.9104 128.231 54.7275C128.537 54.548 128.887 54.455 129.276 54.455C129.489 54.455 129.703 54.4999 129.913 54.5864C130.123 54.673 130.295 54.7885 130.429 54.9328L130.503 54.6538C130.512 54.6217 130.531 54.5961 130.56 54.5736C130.589 54.5544 130.62 54.5415 130.659 54.5415H131.264C131.305 54.5415 131.337 54.5544 131.363 54.58C131.388 54.6057 131.401 54.6378 131.401 54.6794V58.0564C131.401 58.4349 131.315 58.778 131.146 59.0859C130.977 59.3938 130.735 59.6375 130.426 59.8139C130.117 59.9903 129.757 60.0801 129.353 60.0801C129.069 60.0801 128.779 60.0416 128.476 59.9614ZM129.904 57.4984C130.063 57.4054 130.19 57.2771 130.28 57.1136C130.369 56.95 130.413 56.7672 130.413 56.562C130.413 56.3567 130.369 56.1707 130.28 56.0007C130.19 55.8308 130.066 55.6993 129.904 55.5999C129.741 55.5004 129.563 55.4523 129.362 55.4523C129.161 55.4523 128.977 55.5004 128.817 55.5934C128.658 55.6897 128.534 55.8211 128.445 55.9879C128.355 56.1547 128.311 56.3471 128.311 56.562C128.311 56.7768 128.355 56.9532 128.445 57.1168C128.534 57.2803 128.658 57.4086 128.817 57.4984C128.977 57.5914 129.158 57.6363 129.359 57.6363C129.56 57.6363 129.741 57.5882 129.904 57.4952V57.4984Z" fill="#F6A122"/>
<path d="M132.417 53.897V53.1754C132.417 53.0824 132.462 53.0375 132.554 53.0375H133.347C133.44 53.0375 133.484 53.0824 133.484 53.1754V53.897C133.484 53.99 133.44 54.0349 133.347 54.0349H132.554C132.462 54.0349 132.417 53.99 132.417 53.897ZM133.344 58.7203H132.564C132.471 58.7203 132.427 58.6754 132.427 58.5824V54.6795C132.427 54.5865 132.471 54.5416 132.564 54.5416H133.344C133.436 54.5416 133.481 54.5865 133.481 54.6795V58.5824C133.481 58.6754 133.436 58.7203 133.344 58.7203Z" fill="#F6A122"/>
<path d="M135.475 58.7203H134.695C134.602 58.7203 134.558 58.6754 134.558 58.5824V55.5229H134.179C134.086 55.5229 134.042 55.478 134.042 55.385V54.6795C134.042 54.5865 134.086 54.5416 134.179 54.5416H134.551V53.7943C134.551 53.7077 134.593 53.6596 134.676 53.6436L135.466 53.4897C135.466 53.4897 135.485 53.4865 135.501 53.4865C135.539 53.4865 135.568 53.4993 135.587 53.5217C135.606 53.5442 135.619 53.5762 135.619 53.6147V54.5416H136.304C136.396 54.5416 136.441 54.5865 136.441 54.6795V55.385C136.441 55.478 136.396 55.5229 136.304 55.5229H135.615V58.5824C135.615 58.6754 135.571 58.7203 135.478 58.7203H135.475Z" fill="#F6A122"/>
<path d="M140.177 54.5384H140.767C140.859 54.5384 140.904 54.5833 140.904 54.6763V58.5792C140.904 58.6722 140.859 58.7171 140.767 58.7171H140.158C140.082 58.7171 140.031 58.6786 140.002 58.6017L139.932 58.3259C139.629 58.6466 139.247 58.8069 138.785 58.8069C138.397 58.8069 138.043 58.7107 137.718 58.5151C137.393 58.3194 137.138 58.0565 136.95 57.7229C136.762 57.3894 136.667 57.0238 136.667 56.6293C136.667 56.2349 136.762 55.8725 136.95 55.5389C137.138 55.2054 137.396 54.9457 137.721 54.7532C138.046 54.5608 138.4 54.4646 138.785 54.4646C139.253 54.4646 139.636 54.625 139.938 54.9457L140.021 54.6442C140.047 54.5704 140.098 54.5319 140.177 54.5319V54.5384ZM139.371 57.6428C139.54 57.5433 139.671 57.4086 139.77 57.2355C139.865 57.0623 139.913 56.8667 139.913 56.6486C139.913 56.4305 139.865 56.2317 139.77 56.0553C139.674 55.8789 139.54 55.741 139.375 55.6384C139.206 55.5357 139.021 55.4876 138.814 55.4876C138.607 55.4876 138.422 55.5389 138.256 55.6384C138.091 55.741 137.963 55.8789 137.868 56.0553C137.772 56.2317 137.728 56.4305 137.728 56.6486C137.728 56.8667 137.775 57.0655 137.868 57.2387C137.96 57.4119 138.088 57.5498 138.253 57.646C138.416 57.7422 138.604 57.7903 138.807 57.7903C139.011 57.7903 139.206 57.7422 139.375 57.6428H139.371Z" fill="#F6A122"/>
<path d="M142.821 58.7203H142.05C141.958 58.7203 141.913 58.6754 141.913 58.5824V53.448C141.913 53.355 141.958 53.3101 142.05 53.3101H142.821C142.914 53.3101 142.958 53.355 142.958 53.448V58.5824C142.958 58.6754 142.914 58.7203 142.821 58.7203Z" fill="#F6A122"/>
</g>
<defs>
<clipPath id="clip0_244_1855">
<rect width="177" height="76" fill="white" transform="translate(0.5 0.5)"/>
</clipPath>
</defs>
</svg>
